<svg width="230" height="230" viewBox="0 0 230 230" fill="none" xmlns="http://www.w3.org/2000/svg">
<circle cx="114.5" cy="44.5" r="24.5" fill="#AE00FF"/>
<path d="M111 43.1487V38H114.36C116.197 38 117.271 38.9538 117.271 40.5816C117.271 42.2554 116.131 43.1487 113.941 43.1487H111ZM111 51H114.583C116.818 51 118 49.9982 118 48.1262C118 46.2792 116.773 45.3129 114.44 45.3129H111V51Z" fill="white"/>
<path d="M107 31C105.143 31 103.363 31.7375 102.05 33.0503C100.737 34.363 100 36.1435 100 38V52C100 53.8565 100.737 55.637 102.05 56.9497C103.363 58.2625 105.143 59 107 59H121C122.857 59 124.637 58.2625 125.95 56.9497C127.263 55.637 128 53.8565 128 52V38C128 36.1435 127.263 34.363 125.95 33.0503C124.637 31.7375 122.857 31 121 31H107ZM108.855 52V37.2038H114.803C117.581 37.2038 119.253 38.6195 119.253 40.8963C119.253 42.4433 118.116 43.8275 116.658 44.0743V44.2493C118.659 44.454 119.99 45.8785 119.99 47.807C119.99 50.411 118.093 52 114.936 52H108.855Z" fill="white"/>
</svg>
