<svg width="49" height="49" viewBox="0 0 49 49" fill="none" xmlns="http://www.w3.org/2000/svg">
<circle cx="24.5" cy="24.5" r="24.5" fill="#00B3FF"/>
<path d="M39 9L36.2808 37.8887L24.4998 41L12.7186 37.8887L10 9H39ZM33.5207 14.8741H24.4892H15.2977L15.7373 18.3626H24.4892H24.9808L24.4892 18.5633L16.0571 22.008L16.3368 25.4179L24.4892 25.4439L28.8587 25.4575L28.579 30.0042L24.4891 31.1336V31.1301L24.4556 31.1392L20.5059 30.1612L20.2662 27.3388H20.2531H16.5896H16.5767L17.0562 32.7874L24.4893 34.9435V34.9396L24.5027 34.9435L31.8959 32.8267L32.8549 22.008H24.4893H24.4687L24.4893 21.9992L33.1614 18.3626L33.5207 14.8741Z" fill="white"/>
</svg>
