<svg width="49" height="49" viewBox="0 0 49 49" fill="none" xmlns="http://www.w3.org/2000/svg">
<circle cx="24.5" cy="24.5" r="24.5" fill="#390065"/>
<path d="M35.3121 16.9173L35.6684 16.3876L36.2906 16.7586L36.5661 16.9523C37.2311 17.4563 38.63 18.7443 38.9317 20.8816C39.4613 20.7883 39.9957 20.7416 40.5301 20.7416C41.7983 20.7416 42.651 21.031 43.1355 21.2713L43.3849 21.4043L43.5464 21.5093L44 21.8733L43.8432 22.34C43.5996 22.9797 43.2189 23.5606 42.727 24.0433C42.0382 24.7409 40.8269 25.5646 38.9055 25.6719L38.4828 25.6836H38.1313C37.2525 27.9633 36.0721 30.5323 34.0889 32.8376C32.9122 34.2075 31.5165 35.3801 29.9564 36.3096C28.086 37.3997 26.0378 38.1639 23.9024 38.5682C22.3729 38.8599 20.8196 39.0046 19.2639 38.9999C15.8201 38.9999 12.7801 38.3279 10.9109 37.1519C9.24126 36.1042 7.95874 34.3939 7.0966 32.0723C6.34211 29.9508 5.97155 27.716 6.0017 25.4689C5.9978 25.1809 6.09918 24.9009 6.28744 24.68C6.4757 24.4591 6.73836 24.3118 7.02772 24.2649L7.18922 24.2533H32.2222L32.4407 24.2369L32.7945 24.1996C33.4026 24.1203 34.3288 23.9429 34.9796 23.5696C34.2006 22.3026 33.9797 20.821 34.3431 19.2436C34.4953 18.5857 34.7348 17.9502 35.0556 17.3536L35.3121 16.9173ZM12.8632 19.8293L12.9582 19.8456C13.0016 19.8616 13.0407 19.8871 13.0724 19.9203C13.1041 19.9535 13.1276 19.9934 13.1411 20.037L13.1553 20.1303V23.1986L13.1411 23.2943C13.1274 23.3381 13.1035 23.3781 13.0713 23.4113C13.0392 23.4445 12.9997 23.47 12.9558 23.4856L12.8632 23.4996H9.50964C9.44714 23.4988 9.38652 23.4785 9.33656 23.4415C9.28661 23.4046 9.2499 23.3531 9.23176 23.2943L9.21513 23.201V20.128L9.23176 20.0346C9.24516 19.9904 9.26889 19.9499 9.30105 19.9163C9.33321 19.8826 9.37292 19.8568 9.41701 19.841L9.50964 19.827L12.8632 19.8293ZM17.4874 19.8293L17.58 19.8456C17.6239 19.8613 17.6634 19.8867 17.6956 19.9199C17.7277 19.9531 17.7516 19.9932 17.7653 20.037L17.7795 20.1303V23.1986L17.7629 23.2943C17.7492 23.3381 17.7253 23.3781 17.6932 23.4113C17.661 23.4445 17.6215 23.47 17.5777 23.4856L17.485 23.4996H14.1315C14.0691 23.4984 14.0086 23.478 13.9587 23.4411C13.9088 23.4042 13.8721 23.3529 13.8536 23.2943L13.837 23.2033V20.1303C13.8365 20.0679 13.8556 20.0068 13.8917 19.9554C13.9278 19.9041 13.9792 19.8649 14.0388 19.8433L14.1315 19.827L17.4874 19.8293ZM22.1805 19.8293L22.2731 19.8456C22.3165 19.8616 22.3556 19.8871 22.3873 19.9203C22.419 19.9535 22.4425 19.9934 22.456 20.037L22.4726 20.1303V23.1986L22.456 23.2943C22.4423 23.3381 22.4184 23.3781 22.3863 23.4113C22.3541 23.4445 22.3146 23.47 22.2707 23.4856L22.1781 23.4996H18.8246C18.7621 23.4988 18.7014 23.4785 18.6515 23.4415C18.6015 23.4046 18.5648 23.3531 18.5467 23.2943L18.5324 23.201V20.128L18.5467 20.0346C18.5601 19.9904 18.5838 19.9499 18.616 19.9163C18.6481 19.8826 18.6878 19.8568 18.7319 19.841L18.8246 19.827L22.1805 19.8293ZM26.8166 19.8293L26.9092 19.8456C26.953 19.8613 26.9926 19.8867 27.0247 19.9199C27.0569 19.9531 27.0807 19.9932 27.0944 20.037L27.1111 20.1303V23.1986C27.1116 23.2611 27.0925 23.3221 27.0563 23.3735C27.0202 23.4248 26.9688 23.464 26.9092 23.4856L26.8142 23.4996H23.463C23.4005 23.4988 23.3399 23.4785 23.2899 23.4415C23.24 23.4046 23.2033 23.3531 23.1851 23.2943L23.1709 23.201V20.128L23.1851 20.0346C23.1985 19.9904 23.2223 19.9499 23.2544 19.9163C23.2866 19.8826 23.3263 19.8568 23.3704 19.841L23.4654 19.827H26.8189L26.8166 19.8293ZM31.4954 19.8293L31.588 19.8456C31.6319 19.8613 31.6714 19.8867 31.7035 19.9199C31.7357 19.9531 31.7596 19.9932 31.7733 20.037L31.7875 20.1303V23.1986C31.788 23.2611 31.7689 23.3221 31.7328 23.3735C31.6967 23.4248 31.6453 23.464 31.5857 23.4856L31.493 23.4996H28.1395C28.077 23.4988 28.0163 23.4785 27.9664 23.4415C27.9164 23.4046 27.8797 23.3531 27.8616 23.2943L27.8473 23.201V20.128L27.8616 20.0346C27.875 19.9904 27.8987 19.9499 27.9309 19.9163C27.963 19.8826 28.0027 19.8568 28.0468 19.841L28.1418 19.827H31.493L31.4954 19.8293ZM17.4827 15.4146L17.5777 15.431C17.6208 15.4467 17.6597 15.4719 17.6914 15.5047C17.7231 15.5374 17.7467 15.5769 17.7605 15.62L17.7772 15.7156V18.784C17.7777 18.8464 17.7585 18.9075 17.7224 18.9588C17.6863 19.0102 17.6349 19.0494 17.5753 19.071L17.4827 19.0873H14.1315C14.0685 19.0858 14.0076 19.0647 13.9576 19.0269C13.9077 18.9891 13.8712 18.9368 13.8536 18.8773L13.837 18.784V15.7156C13.8369 15.6536 13.8563 15.5931 13.8924 15.5422C13.9285 15.4913 13.9796 15.4525 14.0388 15.431L14.1315 15.4146H17.4827ZM22.1757 15.4146L22.2707 15.431C22.3139 15.4467 22.3528 15.4719 22.3845 15.5047C22.4162 15.5374 22.4398 15.5769 22.4536 15.62L22.4702 15.7156V18.784C22.4707 18.8464 22.4516 18.9075 22.4155 18.9588C22.3794 19.0102 22.328 19.0494 22.2684 19.071L22.1757 19.0873H18.8246C18.7615 19.0858 18.7007 19.0647 18.6507 19.0269C18.6007 18.9891 18.5643 18.9368 18.5467 18.8773L18.5324 18.784V15.7156L18.5467 15.6223C18.5604 15.5785 18.5843 15.5385 18.6164 15.5053C18.6486 15.4721 18.6881 15.4466 18.7319 15.431L18.8246 15.4146H22.1757ZM26.8142 15.4146C26.9424 15.4146 27.0517 15.501 27.0921 15.62L27.1087 15.7156V18.784C27.1092 18.8464 27.0901 18.9075 27.054 18.9588C27.0178 19.0102 26.9664 19.0494 26.9068 19.071L26.8118 19.0873H23.463C23.4 19.0858 23.3391 19.0647 23.2892 19.0269C23.2392 18.9891 23.2028 18.9368 23.1851 18.8773L23.1709 18.784V15.7156L23.1851 15.6223C23.1989 15.5785 23.2227 15.5385 23.2549 15.5053C23.287 15.4721 23.3266 15.4466 23.3704 15.431L23.4654 15.4146H26.8189H26.8142ZM26.8142 11C26.9424 11 27.0517 11.0863 27.0921 11.2053L27.1087 11.2987V14.3693C27.1092 14.4318 27.0901 14.4928 27.054 14.5442C27.0178 14.5955 26.9664 14.6347 26.9068 14.6563L26.8118 14.6703H23.463C23.4005 14.6695 23.3399 14.6492 23.2899 14.6122C23.24 14.5753 23.2033 14.5238 23.1851 14.465L23.1709 14.3717V11.2987L23.1851 11.2053C23.1989 11.1615 23.2227 11.1215 23.2549 11.0883C23.287 11.0551 23.3266 11.0297 23.3704 11.014L23.463 11H26.8166H26.8142Z" fill="white"/>
</svg>
