<svg width="49" height="49" viewBox="0 0 49 49" fill="none" xmlns="http://www.w3.org/2000/svg">
<circle cx="24.5" cy="24.5" r="24.5" fill="#002345"/>
<path d="M32.6676 10.3483V11.3615C32.6761 11.5557 32.7099 11.6992 32.7521 11.8681C32.9617 12.6003 33.3052 13.2874 33.7653 13.8945C33.9341 14.0887 34.2465 14.2322 34.3563 14.4855C34.694 14.7726 35.1669 15.0596 35.5384 15.2454C35.6819 15.296 36.0196 15.3383 36.1294 15.4143C36.2898 15.524 36.3742 15.6084 36.1294 15.752V15.8364C36.0787 15.9884 35.969 16.1319 35.8761 16.2586C35.7072 16.4837 35.5102 16.6807 35.2851 16.8496C34.922 17.1198 34.4829 17.4238 34.0186 17.4406H33.9341C33.8216 17.5307 33.6808 17.587 33.512 17.6095H33.1742C32.7352 17.6686 32.085 17.7953 31.6544 17.6095H31.1478C31.0127 17.6095 30.8945 17.542 30.8101 17.5251H30.5568C30.3789 17.501 30.207 17.4437 30.0502 17.3562H29.9658C29.7547 17.3478 29.628 17.2549 29.4592 17.1873L29.1214 17.1029C28.4122 16.934 27.4075 16.5457 26.8418 16.0897H26.7573C26.3689 16.0053 25.9552 15.7267 25.6006 15.5578C25.246 15.3889 24.714 15.3045 24.4776 14.9921H24.3932C24.0555 14.9077 23.6417 14.6966 23.38 14.4855H23.2956C22.7214 14.3504 22.1473 13.9789 21.6069 13.7256C21.0581 13.4892 20.3742 13.2443 19.9183 12.8813H19.8338C19.2428 12.7799 18.5335 12.5435 17.9763 12.3747H9.78629C9.33879 12.7377 8.62956 12.7377 8.20739 13.2443C7.78523 13.7509 7.40528 14.1478 7.16887 14.7388C7.13509 14.8654 7.10132 14.933 7.08443 15.0765C7.06755 15.2116 7.01689 15.4143 7 15.4987V19.8048C7.01689 19.9061 7.06755 20.075 7.08443 20.2269C7.10132 20.3958 7.12665 20.4971 7.16887 20.6491C7.3087 21.0006 7.47817 21.3395 7.67546 21.6623C7.74301 21.7214 7.79367 21.848 7.84433 21.9156C7.99631 22.0845 8.25805 22.2027 8.35093 22.4222C9.15304 23.123 10.3351 23.2919 11.1372 23.942H11.2217C11.6523 24.0433 12.2348 24.3473 12.5726 24.6175H12.657C12.9947 24.7019 13.4085 24.913 13.6702 25.124H13.7546C14.0136 25.1916 14.2387 25.3042 14.4301 25.4618H14.5145C14.6834 25.4702 14.7341 25.5715 14.8523 25.6306C14.9874 25.6982 15.0802 25.6898 15.19 25.7995H15.2744C15.4152 25.8164 15.5277 25.8727 15.6122 25.9684H15.6966C15.9499 26.0275 16.2623 26.1372 16.4565 26.3061H16.5409C16.9378 26.3737 17.6723 26.5679 17.9763 26.8127H18.0607C18.2718 26.8212 18.3985 26.9225 18.5673 26.9816C18.7193 27.0153 18.8206 27.0491 18.9895 27.066C19.1584 27.0885 19.2991 27.1167 19.4117 27.1504C19.5467 27.1336 19.5805 27.1504 19.665 27.2349H19.7494C19.8901 27.2067 20.0027 27.2349 20.0871 27.3193H20.1715C20.3123 27.2912 20.4248 27.3193 20.5093 27.4037H20.5937C20.7795 27.3869 20.9737 27.3784 21.1003 27.4882H21.1847C21.4099 27.4657 21.6069 27.4938 21.7758 27.5726H25.5753C25.6766 27.5557 25.837 27.4882 25.9974 27.4882H26.504C26.6307 27.4375 26.7489 27.3784 26.9262 27.4037H27.0106C27.0951 27.3249 27.2076 27.2968 27.3484 27.3193H27.4328C27.5172 27.2405 27.6298 27.2124 27.7705 27.2349H27.855C28.0576 27.1251 28.2771 27.0998 28.5304 27.066L28.9526 26.9816C29.1214 26.9225 29.2565 26.8465 29.4592 26.8127C29.7969 26.7536 30.0671 26.6692 30.3879 26.5594C30.5821 26.475 30.7426 26.3483 30.979 26.3061H31.0634C31.1478 26.2104 31.2604 26.1541 31.4011 26.1372H31.4856C31.646 26.0106 31.8149 25.9684 31.9922 25.8839C32.1554 25.7939 32.3243 25.7095 32.4988 25.6306C32.817 25.5098 33.1272 25.3688 33.4275 25.2085C33.799 24.9721 34.179 24.7019 34.6096 24.533C34.6096 24.533 34.6603 24.5499 34.694 24.533C34.846 24.2966 35.2851 24.1277 35.5384 24.0264C35.5384 24.0264 35.589 24.0433 35.6228 24.0264C35.7494 23.8238 36.0703 23.6887 36.2983 23.6043C36.2983 23.6043 36.3489 23.6211 36.3827 23.6043C36.5093 23.4016 36.8302 23.2665 37.0582 23.1821C37.0582 23.1821 37.1088 23.199 37.1426 23.1821C37.2523 23.0132 37.4634 22.9203 37.6492 22.8444C37.6492 22.8444 37.6998 22.8612 37.7336 22.8444C37.9025 22.5911 38.3838 22.3715 38.6624 22.2533L39.0845 22.0845C39.6165 21.7636 40.0809 21.2739 40.6043 20.9024V20.818C40.6043 20.6575 40.5706 20.4633 40.6043 20.3114C40.5199 19.9314 40.2751 19.847 40.0133 19.6359H39.9289C39.8276 19.6359 39.6925 19.619 39.5911 19.6359C38.8397 19.7794 38.198 20.59 37.4634 20.8855C36.7204 21.1726 36.0365 21.7889 35.2851 22.0845H35.2006C34.2803 22.9795 32.7352 23.4354 31.5953 24.0518C30.4555 24.6681 28.7584 25.428 27.4328 25.4618H27.3484C27.2639 25.5406 27.1513 25.5687 27.0106 25.5462H26.9262C26.8418 25.625 26.7292 25.6532 26.5885 25.6306H26.504C26.3774 25.7404 26.1747 25.732 25.9974 25.7151H25.913C25.7695 25.8248 25.5246 25.8164 25.322 25.7995C25.2375 25.8164 25.1193 25.8839 24.9842 25.8839H24.5621C24.0048 25.8839 23.4307 25.9177 22.8734 25.8839C22.713 25.8755 22.6454 25.9093 22.5357 25.7995H21.8602C21.6238 25.7826 21.3789 25.6898 21.1847 25.6306H21.0159C20.695 25.6532 20.4136 25.5969 20.1715 25.4618H20.0871C19.8338 25.4618 19.6087 25.4055 19.4117 25.2929H19.3272C19.1445 25.2929 18.9668 25.2337 18.8206 25.124H18.7362C18.238 25.1072 17.723 24.8032 17.3008 24.6175L16.9631 24.533C16.8196 24.4908 16.7267 24.4739 16.6254 24.3642H16.5409C16.4002 24.3529 16.2876 24.2966 16.2032 24.1953H16.1188C15.9274 24.1446 15.7585 24.0602 15.6122 23.942H15.5277C15.2322 23.8744 14.9114 23.6971 14.6834 23.5198H14.599C14.4554 23.5198 14.4132 23.4607 14.3457 23.351H14.2612C13.2818 23.123 12.3024 22.38 11.3736 22.0169C10.4449 21.6623 9.18682 21.2401 8.85753 20.2269H9.19526C10.5631 20.2269 11.9647 20.1425 13.3325 20.2269C13.476 20.2354 13.5858 20.2945 13.6702 20.3114C13.8475 20.3451 13.9573 20.2692 14.0924 20.3958H14.1768C14.4808 20.4042 14.886 20.5478 15.1056 20.7335H15.19C15.7403 20.8437 16.2593 21.0744 16.7098 21.409H16.7942C17.0532 21.4765 17.2783 21.5891 17.4697 21.7467H17.5541C17.9087 21.8312 18.2549 22.0338 18.5673 22.1689C18.7587 22.2364 18.9557 22.2927 19.1584 22.3378C19.6396 22.4475 20.256 22.532 20.6781 22.7599H20.7626C21.075 22.743 21.3536 22.8528 21.6069 22.9288H22.3668C22.5019 22.9288 22.6201 22.9963 22.7045 23.0132H25.4064C25.5921 22.8781 25.913 22.9288 26.1663 22.9288H26.2507C26.8448 22.7064 27.4739 22.592 28.1083 22.5911C28.3208 22.4927 28.5499 22.4354 28.7837 22.4222C28.9273 22.304 29.0961 22.2871 29.2903 22.2533C29.634 22.1948 29.9727 22.1102 30.3035 22C30.4977 21.9156 30.6581 21.7889 30.8945 21.7467H30.979C31.0634 21.651 31.176 21.5947 31.3167 21.5779H31.4011C31.5616 21.4512 31.7051 21.3921 31.9077 21.3246L32.161 21.2401C32.5072 21.0459 32.8703 20.8011 33.2587 20.6491C33.2587 20.6491 33.3093 20.666 33.3431 20.6491C33.4697 20.4465 33.875 20.2269 34.103 20.1425C34.103 20.1425 34.1537 20.1594 34.1874 20.1425C34.6349 19.4586 35.6735 19.0871 36.2814 18.437C36.8808 17.7784 37.3115 16.8496 37.9025 16.2586V16.1741C37.9261 16.0225 37.9838 15.8781 38.0713 15.752C38.2487 15.5662 38.8228 15.6676 39.0845 15.6676C39.1971 15.6788 39.3097 15.6788 39.4223 15.6676C39.5067 15.6507 39.6165 15.5662 39.76 15.5831H39.8444C39.9626 15.4987 40.1034 15.4424 40.2666 15.4143H40.351C40.4692 15.3073 40.61 15.2229 40.7732 15.161C40.7732 15.161 40.8239 15.1778 40.8576 15.161C41.6175 14.3757 42.3774 13.8607 42.7996 12.7968C42.8925 12.5604 43.0951 12.2565 43.1373 12.0369C43.1542 11.9525 43.1542 11.7836 43.1373 11.6992C43.0107 11.1926 42.0988 11.4966 41.8117 11.8934C41.5247 12.2902 40.6634 12.3747 40.1822 12.3747H39.5911C38.9326 12.7377 37.9616 12.8559 37.6492 13.7256C37.5146 13.2685 37.2772 12.8483 36.9553 12.4971C36.6333 12.1459 36.2353 11.873 35.7917 11.6992C35.665 11.657 35.5806 11.6401 35.4539 11.6148C35.2766 11.5726 35.15 11.5979 35.0318 11.4459H34.9473C34.5433 11.341 34.1864 11.103 33.9341 10.7704C33.7653 10.5256 33.6471 10.2216 33.4275 10.0105H33.3431C33.0138 9.95988 32.8281 10.095 32.6676 10.3483ZM17.3853 14.1478H17.4697C17.6554 14.1309 17.8496 14.1224 17.9763 14.2322H18.0607C18.2014 14.204 18.314 14.2322 18.3985 14.3166H18.4829C19.0077 14.3737 19.5054 14.5787 19.9183 14.9077H20.0027C20.3742 14.9921 20.695 15.2538 21.0159 15.4143C21.1932 15.4987 21.3621 15.5409 21.5225 15.6676H21.6069C21.9446 15.752 22.3584 15.9631 22.6201 16.1741H22.7045C23.0423 16.2586 23.456 16.4697 23.7177 16.6807H23.8022C24.1399 16.7652 24.5536 16.9763 24.8154 17.1873H24.8998C25.5395 17.3525 26.1415 17.6391 26.6729 18.0317H26.7573C27.0528 18.0992 27.3737 18.2765 27.6017 18.4538H27.6861C28.2011 18.572 28.7246 18.876 29.2059 19.0449C29.3579 19.0786 29.4592 19.1124 29.628 19.1293C29.78 19.1462 29.9404 19.1969 30.0502 19.2137C30.1909 19.1856 30.3035 19.2137 30.3879 19.2982H30.8945C31.1056 19.2982 31.2323 19.3235 31.4011 19.3826H31.6544C31.615 19.5008 31.5306 19.5571 31.4011 19.5515C30.9927 19.8329 30.5341 20.0336 30.0502 20.1425L29.2059 20.3958C29.037 20.4633 28.9188 20.5562 28.6993 20.5647H28.6149C28.3953 20.742 27.9816 20.818 27.6861 20.818H27.6017C27.3399 21.029 26.6982 21.1135 26.3352 21.0713H26.2507C26.1241 21.181 25.9214 21.1726 25.7441 21.1557C25.6597 21.1726 25.5415 21.2401 25.4064 21.2401H24.4776C24.1568 21.2739 23.7768 21.2739 23.4644 21.2401H22.7045C22.5103 21.2401 22.3415 21.181 22.1979 21.1557H21.9446C21.7927 21.1557 21.6998 21.0966 21.6069 21.0713C21.3114 21.0037 21.0159 21.0122 20.7626 20.9024H20.6781C20.332 20.8433 19.8507 20.7842 19.5805 20.5647H19.4961C19.2709 20.5309 19.0739 20.4465 18.9051 20.3114H18.8206C18.6799 20.3001 18.5673 20.2438 18.4829 20.1425H18.3985C18.2071 20.0918 18.0382 20.0074 17.8919 19.8892H17.8074C17.1995 19.7457 16.6845 19.391 16.1019 19.1462C15.5108 18.9098 14.7341 18.7831 14.1768 18.5383H13.248C12.066 18.5383 10.8079 18.5636 9.70186 18.4538C9.50766 18.4538 9.29658 18.4792 9.11083 18.4538C9.00482 18.4372 8.90682 18.3874 8.83095 18.3116C8.75507 18.2357 8.70525 18.1377 8.68866 18.0317C8.53668 17.6264 8.65489 17.1536 8.68866 16.7652C8.68866 16.4021 8.65489 16.0306 8.68866 15.6676C8.70555 15.3974 8.87441 15.0512 9.02639 14.8232C9.13897 14.6544 9.27969 14.5136 9.44856 14.4011C9.62587 14.2322 9.9045 14.2069 10.124 14.1478C11.4412 13.8185 13.1889 14.0633 14.599 14.0633C15.038 14.0633 15.6122 14.0211 16.0343 14.0633C16.4565 14.1055 17.0644 13.9113 17.3853 14.1478Z" fill="white"/>
<path d="M13.4169 16.7654V16.8498C13.5689 17.0946 13.7969 17.2973 14.0924 17.3564C14.1177 17.3395 14.4048 17.3395 14.4301 17.3564C15.0212 17.2382 15.2069 16.6134 15.0212 16.0899V16.0055C14.8615 15.8374 14.656 15.7199 14.4301 15.6677C14.4048 15.6846 14.1177 15.6846 14.0924 15.6677C13.5436 15.7775 13.3663 16.2419 13.4169 16.7654Z" fill="white"/>
<path d="M39.0001 23.4355H38.9157C37.379 24.6682 35.437 25.5125 33.8497 26.7284C32.2455 27.9273 30.2444 29.2022 28.2771 29.5991L27.9394 29.6835C27.7367 29.7679 27.6017 29.8524 27.3484 29.8524H27.2639C27.0669 29.965 26.8418 30.0212 26.5885 30.0212H26.504C26.3943 30.1226 26.2507 30.1141 26.0819 30.1057H25.913C25.7666 30.1676 25.5978 30.1957 25.4064 30.1901H25.2375C24.9842 30.2914 24.6887 30.2745 24.3932 30.2745C23.8613 30.3252 23.228 30.3252 22.7045 30.2745C22.4175 30.2745 21.9953 30.3505 21.7758 30.1901H21.6913C21.5056 30.207 21.3114 30.2154 21.1847 30.1057H21.1003C20.9314 30.1226 20.7879 30.1226 20.6781 30.0212H20.5937C19.952 30.0635 19.2006 29.7342 18.6518 29.5146L18.314 29.4302C17.2328 29.1451 16.2019 28.6951 15.2575 28.0962C14.3794 27.5389 13.2987 27.0154 12.5135 26.3653C11.7367 25.7152 10.504 25.2846 9.95516 24.4487H9.87072C9.67653 24.3305 9.49077 24.2207 9.36412 24.0265H9.27969C8.94196 23.8154 8.56201 23.5874 8.2665 23.351H7.5066C7.37671 23.3947 7.26105 23.4727 7.17187 23.5768C7.08269 23.6808 7.0233 23.807 7 23.9421C7.02533 24.2207 7 24.5078 7 24.7864V25.5463C7.01689 25.6814 7.08443 25.8671 7.08443 26.0529V26.3062C7.10132 26.3906 7.18575 26.4919 7.16887 26.6439V26.7284C7.27019 26.8297 7.23641 26.9141 7.2533 27.0661C7.32085 27.6318 7.5066 28.1299 7.67546 28.6703C7.819 29.0334 8.03008 29.4387 8.09763 29.8524V29.9368C8.19895 30.0212 8.25524 30.1338 8.2665 30.2745V30.359C8.45033 30.6167 8.59277 30.9016 8.68866 31.2033C8.74776 31.3722 8.77309 31.4566 8.85753 31.6255C9.53299 32.6978 10.1831 33.7785 11.0359 34.7748C11.8802 35.7627 12.7921 36.5141 13.7715 37.3416C14.7594 38.1775 16.161 38.5236 17.132 39.3089H17.2164C17.3571 39.3258 17.4697 39.382 17.5541 39.4777H17.6386C17.875 39.5115 18.0438 39.6466 18.2296 39.731L18.8206 39.8999C19.3019 40.0097 19.9183 40.0941 20.3404 40.3221H20.4249C20.6022 40.2967 20.7288 40.3896 20.847 40.4065H21.1003C21.3367 40.4234 21.59 40.4909 21.7758 40.5754H22.4512C22.6286 40.5754 22.8396 40.6429 22.9578 40.6598H24.7309C24.8323 40.6429 25.0011 40.5754 25.1531 40.5754H25.913C26.1916 40.4909 26.504 40.3727 26.8418 40.4065H26.9262C27.1542 40.2208 27.551 40.2039 27.855 40.1532C28.084 40.1139 28.3098 40.0574 28.5304 39.9843C29.0792 39.7648 29.704 39.4524 30.3035 39.3089H30.3879C31.1056 38.7347 32.1273 38.4899 32.8534 37.8904C33.588 37.2994 34.3985 36.8097 35.1162 36.1849C35.4877 35.864 35.8761 35.425 36.2138 35.0872C37.4634 33.8376 37.9616 32.1658 39.0001 30.8656V30.7811C39.0508 30.5898 39.1352 30.4209 39.2534 30.2745V30.1901C39.2703 30.0494 39.3266 29.9368 39.4223 29.8524V29.7679C39.4645 29.4893 39.5911 29.0418 39.76 28.8392V28.7547C39.76 28.5577 39.8163 28.3889 39.9289 28.2481V28.1637C40.0218 27.598 40.1315 26.8972 40.351 26.3906V26.3062C40.3342 26.1373 40.3342 25.9938 40.4355 25.884V25.2086C40.4355 24.7611 40.3933 24.2967 40.4355 23.8576C40.3691 23.6622 40.2526 23.4875 40.0977 23.351C40.0133 23.3088 40.0049 23.3173 39.9289 23.2666H39.4223C39.3041 23.351 39.1634 23.4073 39.0001 23.4355ZM38.4935 26.6439C38.3162 27.7753 36.7035 28.3579 35.8761 29.1769C35.0318 29.979 33.875 30.7811 32.9209 31.4566C31.95 32.1321 30.8017 33.1199 29.628 33.3986H29.5436C29.2945 33.5794 29.0044 33.6954 28.6993 33.7363H28.6149C28.3117 33.9339 27.9628 34.0502 27.6017 34.074H27.5172C27.3202 34.1866 27.0951 34.2429 26.8418 34.2429H26.7573C26.6644 34.3358 26.5631 34.3273 26.4196 34.3273H26.2507C26.1494 34.3611 26.065 34.4118 25.913 34.4118H25.7441C25.5922 34.4709 25.4402 34.5215 25.2375 34.4962H25.1531C25.0518 34.5975 24.9589 34.5806 24.8154 34.5806H24.3932C23.9119 34.6313 23.3547 34.6482 22.8734 34.5806H22.5357C22.3753 34.5806 22.3077 34.53 22.1979 34.4962H21.6913C21.5309 34.4962 21.4634 34.5215 21.3536 34.4118H21.2692C21.1285 34.4399 21.0159 34.4118 20.9314 34.3273H20.847C20.1631 34.3695 19.4285 34.0234 18.8037 33.8376C18.1789 33.6519 17.4697 33.4661 16.9631 33.0608H16.8787C15.7979 32.6387 14.5905 31.7437 13.6955 31.0091C12.8005 30.2745 11.4581 29.616 10.7995 28.6703C10.7742 28.6534 10.7151 28.6703 10.7151 28.6703C10.2338 28.2988 9.31346 27.826 9.11083 27.235C9.03484 27.0154 9.02639 26.779 8.94196 26.5595C8.87441 26.3737 8.73088 26.1373 8.77309 25.884C11.1226 27.6516 13.6069 29.2326 16.2032 30.6123H16.2876C16.479 30.6629 16.6479 30.7474 16.7942 30.8656H16.8787C17.1151 30.8993 17.2839 31.0344 17.4697 31.1189C17.7511 31.2202 18.0326 31.3046 18.314 31.3722L18.8206 31.541C18.9839 31.5748 19.1527 31.603 19.3272 31.6255C19.4961 31.648 19.6368 31.6761 19.7494 31.7099C19.8845 31.693 19.9183 31.7099 20.0027 31.7943H20.0871C20.256 31.7774 20.3995 31.7774 20.5093 31.8788H20.5937C20.7795 31.8534 20.8808 31.9125 21.0159 31.9632H21.6913C21.8264 31.9632 21.9446 32.0392 22.0291 32.0476H25.4064C25.5584 31.9379 25.7948 31.9463 25.9974 31.9632H26.0819C26.1832 31.8619 26.352 31.8619 26.504 31.8788H26.5885C26.6898 31.7774 26.8586 31.7774 27.0106 31.7943H27.0951C27.1879 31.7015 27.2893 31.7099 27.4328 31.7099H27.6017C27.8972 31.5664 28.1842 31.5157 28.5304 31.4566L28.8682 31.3722C29.1552 31.254 29.4676 31.1189 29.7969 31.0344C29.9236 31.0007 30.008 30.9922 30.1346 30.95C30.2529 30.8909 30.3035 30.7896 30.4724 30.7811H30.5568C30.7032 30.6629 30.872 30.5785 31.0634 30.5278H31.1478C31.3589 30.359 31.6544 30.207 31.9077 30.1057L32.161 30.0212C32.2792 29.9453 32.3299 29.8102 32.4988 29.7679H32.5832C32.662 29.6441 32.7746 29.5597 32.9209 29.5146H33.0054C33.6217 28.8645 34.6096 28.4001 35.3442 27.8851C36.0872 27.37 36.8808 26.6186 37.7336 26.3062C37.7674 26.2893 37.8181 26.3062 37.8181 26.3062C38.0319 26.0867 38.2852 25.9178 38.5779 25.7996C38.6877 26.0107 38.5357 26.3653 38.4935 26.6439ZM36.8049 31.2877C36.788 31.3215 36.8049 31.3722 36.8049 31.3722C36.5178 32.1827 35.7326 32.9764 35.2006 33.6519C34.8963 34.0214 34.557 34.3608 34.1874 34.6651C33.482 35.2945 32.7282 35.8676 31.9331 36.379C31.131 36.8688 30.2444 37.6287 29.2903 37.7891H29.2059C28.9568 37.9699 28.6666 38.0859 28.3616 38.1268H28.2771C28.0069 38.3463 27.5257 38.4054 27.1795 38.4645H27.0951C27.0106 38.5433 26.898 38.5715 26.7573 38.549H26.6729C26.5885 38.6278 26.4759 38.6559 26.3352 38.6334H26.2507C25.837 38.8276 25.3642 38.7178 24.8998 38.8023C24.8154 38.8192 24.6887 38.8867 24.5621 38.8867C24.0386 38.9205 23.4813 38.912 22.9578 38.8867C22.8059 38.8867 22.637 38.8192 22.5357 38.8023H22.1979C22.0629 38.8023 21.9446 38.7263 21.8602 38.7178H21.5225C21.1932 38.6925 20.7795 38.6081 20.5093 38.4645H20.4249C20.1462 38.4223 19.7916 38.3801 19.5805 38.2112H19.4961C19.1921 38.2028 18.7868 38.0593 18.5673 37.8735H18.4829C18.1536 37.8229 17.8074 37.654 17.5541 37.4513H17.4697C16.1103 37.1305 14.751 35.8556 13.6702 35.0028C12.3178 33.7606 11.177 32.3062 10.2929 30.6967C11.7874 31.6677 13.248 32.8497 14.6834 33.9052H14.7678C15.1056 34.0403 15.8486 34.3611 16.0343 34.6651H16.1188C16.5072 34.7495 16.9969 35.0112 17.3008 35.2561H17.3853C17.526 35.273 17.6386 35.3293 17.723 35.425H17.8074C18.0861 35.4672 18.5336 35.5938 18.7362 35.7627H18.8206C19.0176 35.7627 19.1865 35.819 19.3272 35.9316H19.4117C19.5524 35.9034 19.665 35.9316 19.7494 36.016H19.8338C19.9745 35.9878 20.0871 36.016 20.1716 36.1004H20.256C20.5768 36.0835 20.923 36.1849 21.1847 36.2693H21.9446C22.0797 36.2693 22.1979 36.3368 22.2824 36.3537H24.9842C25.0856 36.3368 25.2544 36.2693 25.4064 36.2693H26.0819C26.6357 36.1155 27.2001 36.0026 27.7705 35.9316L28.1927 35.8471C28.3616 35.788 28.5051 35.7205 28.6993 35.6783L29.037 35.5938C29.1637 35.5432 29.2903 35.4503 29.4592 35.425H29.5436C29.7125 35.2899 29.9095 35.2054 30.1346 35.1717H30.2191C30.3654 35.0534 30.5343 34.969 30.7257 34.9184H30.8101C31.798 34.1247 33.1405 33.6856 34.103 32.8075C35.0824 31.9379 36.2138 31.2455 37.227 30.4434C37.2004 30.7687 37.0491 31.0712 36.8049 31.2877Z" fill="white"/>
</svg>
