<svg width="49" height="49" viewBox="0 0 49 49" fill="none" xmlns="http://www.w3.org/2000/svg">
<circle cx="24.5" cy="24.5" r="24.5" fill="#008D50"/>
<path fill-rule="evenodd" clip-rule="evenodd" d="M20.4322 8C18.1075 8 16.2277 8.76945 14.9247 10.0478C13.6355 11.3124 13 12.9913 13 14.6521C13 16.313 13.6355 17.9919 14.9247 19.2565C15.0139 19.3439 15.1057 19.429 15.2002 19.5121C15.3251 19.621 15.4546 19.7257 15.5887 19.826C15.4688 19.9155 15.3526 20.0087 15.2401 20.1054C15.1315 20.1992 15.0263 20.2959 14.9247 20.3955C13.6355 21.6601 13 23.3391 13 24.9999C13 26.6607 13.6355 28.3397 14.9247 29.6042C15.1194 29.7955 15.327 29.9745 15.547 30.142C14.6538 30.8429 13.953 31.7567 13.5138 32.8019C13.0029 34.0174 12.8693 35.3549 13.1297 36.6455C13.3902 37.9361 14.033 39.1212 14.977 40.0517C15.9211 40.9821 17.1238 41.6151 18.4331 41.8721C19.7425 42.129 21.0997 41.9969 22.3332 41.4931C23.5666 40.99 24.6207 40.1375 25.3624 39.0433C26.1041 37.9499 26.5 36.6635 26.5 35.3477V30.5318C27.5725 31.2392 28.8625 31.6521 30.25 31.6521C33.978 31.6521 37 28.674 37 24.9999C37 22.8922 36.0053 21.0134 34.4531 19.7943C34.673 19.6268 34.8806 19.4478 35.0753 19.2565C36.3646 17.9919 37 16.313 37 14.6521C37 12.9913 36.3646 11.3124 35.0753 10.0478C33.7723 8.76945 31.8925 8 29.5678 8H20.4322ZM23.5 21.3043H20.4322C18.8022 21.3043 17.7159 21.8283 17.0414 22.4901C16.3532 23.1659 16 24.0738 16 24.9999C16 25.926 16.3532 26.834 17.0414 27.5097C17.7159 28.1715 18.8022 28.6956 20.4322 28.6956H23.5V21.3043ZM17.6794 32.2938C18.2922 31.8902 19.0128 31.6521 19.75 31.6521C19.75 31.6521 20.3225 31.6521 20.4322 31.6521H23.5V35.3477C23.5 36.0738 23.2586 36.7841 22.849 37.3883C22.4395 37.9924 21.8574 38.463 21.1763 38.7409C20.4952 39.0195 19.7459 39.0917 19.0229 38.9502C18.2999 38.8087 17.6358 38.4587 17.1145 37.9447C16.5933 37.4316 16.2383 36.7769 16.0945 36.0645C15.9507 35.352 16.0245 34.6129 16.3066 33.9423C16.5887 33.271 17.0664 32.6972 17.6794 32.2938ZM26.5 18.3478H29.5678C31.1977 18.3478 32.2842 17.8238 32.9585 17.1618C33.6467 16.4862 34 15.5782 34 14.6521C34 13.7261 33.6467 12.818 32.9585 12.1424C32.2842 11.4805 31.1979 10.9565 29.5678 10.9565H26.5V18.3478ZM23.5 18.3478H20.4322C18.8022 18.3478 17.7159 17.8238 17.0414 17.1618C16.3532 16.4862 16 15.5782 16 14.6521C16 13.7261 16.3532 12.818 17.0414 12.1424C17.7159 11.4805 18.8022 10.9565 20.4322 10.9565H23.5V18.3478ZM30.25 28.6732C28.1916 28.6732 26.5229 27.0282 26.5229 24.9999C26.5229 22.9716 28.1916 21.3267 30.25 21.3267C32.3085 21.3267 33.977 22.9716 33.977 24.9999C33.977 27.0282 32.3085 28.6732 30.25 28.6732Z" fill="white"/>
</svg>
