<svg width="49" height="49" viewBox="0 0 49 49" fill="none" xmlns="http://www.w3.org/2000/svg">
<circle cx="24.5" cy="24.5" r="24.5" fill="#FF4400"/>
<path d="M18.3996 17.6327C20.2633 16.7002 21.5385 14.8078 21.5385 12.625C21.5385 9.5184 18.9555 7 15.7692 7C12.583 7 10 9.5184 10 12.625C10 14.9316 11.424 16.9139 13.4615 17.782V32.218C11.424 33.0861 10 35.0683 10 37.375C10 40.4816 12.583 43 15.7692 43C18.9555 43 21.5385 40.4816 21.5385 37.375C21.5385 35.0683 20.1145 33.0861 18.0769 32.218V23.682L22.8903 28.375H28.9416C29.8318 30.3617 31.8649 31.75 34.2308 31.75C37.417 31.75 40 29.2316 40 26.125C40 23.0184 37.417 20.5 34.2308 20.5C31.8649 20.5 29.8318 21.8884 28.9416 23.875H24.802L18.3996 17.6327Z" fill="white"/>
</svg>
