<svg width="49" height="49" viewBox="0 0 49 49" fill="none" xmlns="http://www.w3.org/2000/svg">
<circle cx="24.5" cy="24.5" r="24.5" fill="#FF7700"/>
<path fill-rule="evenodd" clip-rule="evenodd" d="M33.4546 18.6H33.4435H20.0409L20.3614 21.8H33.1357C32.9484 24.6032 32.382 30.5421 32.1741 33.2445L24.9992 35.3219V35.3281L24.9833 35.3359L17.8036 32.7375L17.3118 26.6H20.831L21.0801 29.9008L24.9897 31.4H24.9992L28.9024 29.9602L29.3038 25H17.1547C17.096 24.3584 16.3407 16.0272 16.209 15.4H33.7687C33.6704 16.456 33.5704 17.5408 33.4546 18.6ZM11 9L13.5482 38.0367L24.9833 41L36.4486 37.9773L39 9H11Z" fill="white"/>
</svg>
