<svg width="49" height="49" viewBox="0 0 49 49" fill="none" xmlns="http://www.w3.org/2000/svg">
<circle cx="24.5" cy="24.5" r="24.5" fill="#E1FF00"/>
<path fill-rule="evenodd" clip-rule="evenodd" d="M32.4592 36.805C30.0162 36.805 28.437 35.6403 27.667 34.1171L29.809 32.8764C30.3732 33.7976 31.1054 34.4739 32.4032 34.4739C33.4924 34.4739 34.1882 33.9289 34.1882 33.1771C34.1882 32.0459 32.679 31.604 31.6136 31.1476C29.7152 30.3398 28.4552 29.3247 28.4552 27.1813C28.4552 25.2087 29.9588 23.7053 32.3094 23.7053C33.981 23.7053 35.185 24.2876 36.0488 25.8094L34.0006 27.1253C33.5498 26.3175 33.0612 25.998 32.3094 25.998C31.538 25.998 31.0494 26.4869 31.0494 27.1253C31.0494 27.9149 31.538 28.2343 32.6664 28.7229C35.031 29.7365 36.8202 30.5328 36.8202 33.1396C36.8202 35.5084 34.9596 36.805 32.4592 36.805ZM26.4 32.8388C26.4 35.5646 24.7214 37.0053 22.3904 37.0053C20.2848 37.0053 19.0234 36.2 18.4032 34.8H18.3822H18.3724H18.3668L20.5074 33.3036C20.9204 34.0358 21.2928 34.5553 22.1944 34.5553C23.0596 34.5553 23.6 34.1171 23.6 32.8025V23.6H26.4V32.8388ZM11 39H39V11H11V39Z" fill="white"/>
</svg>
