<svg width="49" height="49" viewBox="0 0 49 49" fill="none" xmlns="http://www.w3.org/2000/svg">
<circle cx="24.5" cy="24.5" r="24.5" fill="#CC0003"/>
<path d="M21.4963 32.2467L32.4934 26.1498L27.4974 23.3557L16.5077 29.5026L21.4963 32.2467ZM32.9991 19.7762L27.9978 16.9821V22.5142L33.0001 25.3093L32.9991 19.7762ZM33.4985 13.3464L28.4983 16.1406L33.4985 18.9347L38.4976 16.1395L33.4985 13.3464ZM18.0984 27.4907L21.0001 25.868V13.6804L15.9978 16.4766V28.6641L18.0984 27.4907ZM15.4973 10.0458L10.4971 12.8409L15.4973 15.6361L20.4944 12.8409L15.4973 10.0458ZM9.99563 13.6814V32.5255L20.9969 38.6754V33.0882L15.2439 29.9264C15.225 29.9131 15.2103 29.8988 15.1903 29.8866C15.1756 29.8733 15.1588 29.8631 15.1441 29.8519L15.143 29.8488C15.1272 29.8335 15.1136 29.8171 15.102 29.7987L15.101 29.7977C15.0862 29.7845 15.0747 29.7691 15.0642 29.7518L15.0631 29.7507H15.06C15.0515 29.7354 15.0431 29.715 15.0347 29.6946L15.0337 29.6905C15.0263 29.6752 15.0179 29.6578 15.0105 29.6384L15.0095 29.6353C15.0053 29.6149 15.0011 29.5894 14.999 29.5639V29.5618C14.9958 29.5465 14.9927 29.5281 14.9906 29.5097V29.5087V16.4786L12.092 14.8548L9.99563 13.6814ZM33.0001 32.5245V26.9872L21.9988 33.0882V38.6744L33.0001 32.5245ZM38.997 22.5142V16.9821L33.9968 19.7772V25.3093L38.997 22.5142ZM39.9811 16.0139C39.9926 16.0527 40 16.0967 40 16.1426V22.794C40 22.9737 39.9001 23.13 39.7508 23.2137L39.7487 23.2148L34 26.4307V32.8043C34 32.983 33.9001 33.1393 33.7518 33.224L33.7497 33.225L21.7476 39.9346C21.7223 39.9479 21.6929 39.9602 21.6624 39.9683L21.6593 39.9694L21.6277 39.9826C21.5899 39.9939 21.5457 40 21.5005 40C21.4553 40 21.4111 39.9939 21.3691 39.9816L21.3722 39.9826C21.3565 39.9786 21.3439 39.9734 21.3312 39.9663L21.3323 39.9673C21.2997 39.9561 21.2724 39.9459 21.2461 39.9336L21.2503 39.9357L9.25127 33.2261C9.09988 33.1403 9 32.984 9 32.8053V12.8419C9 12.797 9.00736 12.7531 9.01998 12.7122L9.01892 12.7153C9.02313 12.7 9.03259 12.6898 9.03785 12.6745C9.04731 12.6448 9.05782 12.6203 9.06939 12.5968L9.06834 12.5999C9.07675 12.5836 9.08726 12.5693 9.09883 12.557L9.14298 12.4988L9.1924 12.4641C9.21132 12.4488 9.22814 12.4334 9.24707 12.4202H9.24812L15.2492 9.06536C15.3207 9.02451 15.4069 9 15.4984 9C15.5898 9 15.676 9.02451 15.7496 9.06638L15.7475 9.06536L21.7507 12.4202C21.7707 12.4334 21.7875 12.4477 21.8043 12.4631L21.8548 12.4978C21.8716 12.5162 21.8811 12.5366 21.899 12.556C21.9116 12.5682 21.9221 12.5825 21.9316 12.5979L21.9326 12.5989C21.9431 12.6193 21.9536 12.6438 21.9631 12.6693L21.9642 12.6734L21.981 12.7143C21.9925 12.75 21.9999 12.7919 21.9999 12.8348C21.9999 12.8368 21.9999 12.8389 21.9999 12.8409V25.3083L27.0001 22.5132V16.1395C27.0001 16.1385 27.0001 16.1375 27.0001 16.1375C27.0001 16.0936 27.0064 16.0507 27.018 16.0099L27.0169 16.0129C27.0211 15.9996 27.0306 15.9874 27.0337 15.9721C27.0443 15.9414 27.0548 15.9169 27.0674 15.8924L27.0653 15.8965C27.0747 15.8812 27.0895 15.871 27.0989 15.8536C27.1147 15.8342 27.1273 15.8148 27.1431 15.7985C27.1578 15.7852 27.1736 15.7729 27.1904 15.7627L27.1914 15.7617C27.2104 15.7484 27.2261 15.7321 27.2461 15.7208H27.2472L33.2483 12.365C33.3197 12.3242 33.406 12.2997 33.4974 12.2997C33.5889 12.2997 33.6751 12.3242 33.7487 12.366L33.7466 12.365L39.7477 15.7208C39.7687 15.7341 39.7834 15.7484 39.8034 15.7607C39.8192 15.7739 39.837 15.7842 39.8518 15.7964C39.8686 15.8148 39.8812 15.8352 39.897 15.8536C39.9085 15.8659 39.919 15.8802 39.9285 15.8944L39.9296 15.8955C39.9422 15.9179 39.9527 15.9435 39.9611 15.97L39.9622 15.9731C39.9706 15.9853 39.9769 15.9986 39.9821 16.0129L39.9811 16.0139Z" fill="white"/>
</svg>
