<svg width="49" height="49" viewBox="0 0 49 49" fill="none" xmlns="http://www.w3.org/2000/svg">
<circle cx="24.5" cy="24.5" r="24.5" fill="#040176"/>
<path d="M39.6306 39.2698L38.9859 38.6647C38.6673 38.2509 38.3284 37.8846 37.9591 37.5507L37.9527 37.5457C37.5736 37.2065 37.1797 36.8839 36.771 36.578C36.4436 36.3563 35.9934 36.0892 35.4206 35.7766C34.9497 35.5678 34.5816 35.2015 34.3823 34.7464L34.3773 34.7339L34.3163 34.7039C34.5854 34.6776 34.8316 34.6289 35.0677 34.5601L35.0385 34.5676L35.762 34.3713C36.0615 34.2788 36.408 34.2188 36.7672 34.205H36.7749C37.1531 34.19 37.5097 34.13 37.8499 34.0313L37.8182 34.0388C37.9823 33.9988 38.1511 33.9533 38.3246 33.9025C38.4981 33.8516 38.6466 33.8062 38.7701 33.7662V33.5549C38.6474 33.374 38.4989 33.1673 38.3246 32.9348C38.1583 32.7122 37.9717 32.5184 37.7623 32.3497L37.756 32.3447C37.2237 31.8812 36.6725 31.4328 36.1022 30.9994C35.5995 30.613 35.0296 30.2192 34.4382 29.8541L34.3519 29.8041C34.0396 29.6016 33.6817 29.414 33.3047 29.2603L33.2616 29.2453C32.8825 29.0936 32.5089 28.9273 32.1408 28.7464C32.0177 28.6864 31.8743 28.6339 31.7258 28.5976L31.7118 28.5951C31.5633 28.5651 31.4364 28.4901 31.3438 28.3838L31.3425 28.3826C31.1673 28.155 31.0138 27.8962 30.8919 27.6212L30.8818 27.5962C30.7591 27.3136 30.6262 27.0423 30.4832 26.7822C30.1761 26.1971 29.8791 25.6024 29.5922 24.9981C29.3054 24.3938 29.0299 23.7887 28.7659 23.1827C28.5823 22.7793 28.4135 22.3763 28.2595 21.9737C28.0894 21.5312 27.8978 21.1523 27.6744 20.796L27.6909 20.8248C27.1426 19.9046 26.5955 19.1194 26.0015 18.373L26.0371 18.4205C25.4494 17.6904 24.8402 17.0377 24.1852 16.4326L24.1751 16.4238C23.529 15.8262 22.8335 15.2561 22.1037 14.7285L22.0415 14.6847C21.2833 14.1421 20.4541 13.6078 19.5538 13.0819C19.192 12.8718 18.7719 12.7006 18.3289 12.5905L18.2959 12.583L16.8833 12.2355L16.0849 12.1755C15.8192 12.1554 15.5531 12.1454 15.2866 12.1454C15.0987 12.0479 14.9375 11.9317 14.7954 11.7966C14.6557 11.6653 14.5047 11.5416 14.3473 11.4278L14.3346 11.419C13.5667 10.9777 12.6745 10.5739 11.7416 10.2563L11.6337 10.2238C11.3887 10.0825 11.0943 10 10.7807 10C10.5574 10 10.3429 10.0425 10.1474 10.1188L10.1588 10.115C9.67651 10.3038 9.30843 10.6876 9.14977 11.1652L9.14596 11.1777C9.05331 11.3928 9 11.6416 9 11.9041C9 12.3642 9.165 12.7856 9.44043 13.1144L9.43789 13.1106C9.8982 13.7149 10.2511 14.19 10.4964 14.5359C10.6801 14.7785 10.8696 15.0306 11.0651 15.2924C11.244 15.5274 11.4027 15.7962 11.5309 16.08L11.541 16.1063C11.6121 16.2551 11.6743 16.4326 11.72 16.6151L11.7238 16.6351C11.7644 16.8068 11.8156 16.9935 11.8774 17.1952C12.061 17.6587 12.2349 18.1338 12.399 18.6205C12.578 19.1519 12.776 19.602 13.0057 20.0308L12.9816 19.9808C13.1043 20.2025 13.2274 20.4193 13.351 20.631C13.4745 20.8427 13.6074 21.0494 13.7495 21.2511C13.832 21.3736 13.9361 21.4749 14.0554 21.5537L14.0592 21.5562C14.1849 21.6462 14.2674 21.7875 14.2737 21.9475C14.129 22.1575 14.0313 22.4101 13.9983 22.6814L13.997 22.6889C13.9526 23.0052 13.8891 23.2865 13.8028 23.5578L13.813 23.5203C13.5299 24.353 13.3675 25.3132 13.3675 26.3096C13.3675 26.6322 13.384 26.9498 13.4182 27.2636L13.4144 27.2248C13.4906 28.4226 13.8574 29.5228 14.4451 30.4755L14.4273 30.4443C14.6773 30.8131 14.9451 31.1344 15.2409 31.4282C15.4541 31.6633 15.7638 31.8108 16.109 31.8108C16.302 31.8108 16.4847 31.7645 16.6447 31.682L16.6383 31.6845C17.0825 31.527 17.3986 31.1269 17.4214 30.6506V30.6481C17.4824 30.0554 17.5737 29.5253 17.6994 29.0077L17.6829 29.0915C17.7134 29.0127 17.7311 28.9227 17.7311 28.8277C17.7311 28.8089 17.7299 28.7902 17.7286 28.7714V28.7739C17.7184 28.6831 17.7747 28.5972 17.8974 28.5164V28.5764C18.0201 28.8589 18.1479 29.1411 18.2807 29.4228C18.4136 29.7045 18.5515 29.9867 18.6945 30.2692C19.0689 30.8306 19.4662 31.3207 19.9028 31.772L19.899 31.7683C20.3369 32.2334 20.8141 32.651 21.3294 33.0198L21.3574 33.0385C21.6264 33.2411 21.8625 33.4599 22.0757 33.6987L22.0808 33.7037C22.2814 33.9362 22.5212 34.1275 22.7916 34.2713L22.8043 34.2776V34.2476H22.8652C22.8157 34.1388 22.7358 34.0513 22.6368 33.9912L22.6342 33.99C22.5339 33.935 22.4476 33.88 22.3664 33.82L22.3727 33.8237C22.1891 33.6428 21.9996 33.4411 21.8041 33.2186C21.6087 32.996 21.4297 32.7843 21.2672 32.5835C20.8374 31.9983 20.4274 31.387 20.0373 30.7493C19.6473 30.1117 19.2788 29.4636 18.9318 28.8052C18.7677 28.4826 18.609 28.15 18.4559 27.8075C18.3027 27.4649 18.1542 27.1323 18.0104 26.8098C17.9482 26.686 17.905 26.5434 17.8885 26.3922V26.3859C17.8809 26.2421 17.7971 26.1184 17.6753 26.0546L17.6727 26.0533C17.5192 26.3109 17.3491 26.5334 17.1549 26.7347L17.1562 26.7335C16.9543 26.9423 16.7893 27.1886 16.6713 27.4586L16.665 27.4749C16.486 27.9025 16.3553 28.3988 16.2981 28.9177L16.2956 28.9414C16.2347 29.4757 16.1733 30.025 16.1116 30.5893L16.0506 30.6193L16.0202 30.6493C15.6902 30.583 15.4186 30.3755 15.2713 30.0954L15.2688 30.0892C15.1148 29.7966 14.9769 29.5091 14.855 29.2265C14.5402 28.4301 14.3448 27.5086 14.3181 26.5459V26.5347C14.3067 26.3822 14.3016 26.2034 14.3016 26.0246C14.3016 25.1919 14.4349 24.3892 14.6811 23.6366L14.6659 23.6916C14.7268 23.4699 14.8597 23.0965 15.0644 22.5714C15.2692 22.0463 15.3103 21.6833 15.1876 21.4824C15.1241 21.2761 15.0061 21.1023 14.8512 20.9698L14.8499 20.9685C14.6951 20.836 14.5542 20.6972 14.4247 20.5497L14.4209 20.5447C14.2779 20.3413 14.14 20.1246 14.0072 19.8946C13.8743 19.6645 13.7567 19.4378 13.6543 19.2144C13.4449 18.7368 13.2304 18.1379 13.0527 17.5228L13.0248 17.4115C12.823 16.7051 12.5983 16.1075 12.3318 15.5324L12.3648 15.6124C12.2239 15.2974 12.0601 15.0248 11.8698 14.776L11.8774 14.786C11.6709 14.5143 11.4864 14.2571 11.324 14.0146C11.1175 13.7529 10.9127 13.5007 10.7097 13.2582C10.5028 13.0119 10.3187 12.7343 10.169 12.4368L10.1575 12.4118C10.0966 12.2905 10.0433 12.1492 10.0065 12.0029L10.004 11.9892C9.99001 11.9454 9.98239 11.8941 9.98239 11.8429C9.98239 11.7404 10.0129 11.6441 10.0662 11.5641L10.0649 11.5666C10.0789 11.4966 10.1119 11.4353 10.1575 11.3853C10.2071 11.3415 10.2705 11.309 10.3391 11.2953H10.3416C10.4495 11.2265 10.5802 11.1852 10.7224 11.1852C10.829 11.1852 10.9318 11.209 11.0219 11.2515L11.0181 11.2503C11.2961 11.3278 11.5207 11.4053 11.7403 11.4941L11.6946 11.4778C12.083 11.6395 12.4413 11.7958 12.7697 11.9467C13.1479 12.1242 13.4703 12.3117 13.7749 12.5205L13.752 12.5055C13.9162 12.6064 14.0799 12.7172 14.2432 12.8381C14.4066 12.9589 14.5804 13.0802 14.7649 13.2019H15.1952C15.5226 13.2019 15.8704 13.2173 16.2385 13.2482C16.6104 13.2769 16.9543 13.3457 17.2818 13.4532L17.2514 13.4445C17.8619 13.6233 18.3861 13.8345 18.8836 14.0884L18.8316 14.0646C19.3333 14.3163 19.8093 14.5835 20.2595 14.866C21.007 15.3249 21.6531 15.795 22.2611 16.3088L22.2395 16.2913C22.8741 16.8264 23.4503 17.3753 23.991 17.9554L24.0037 17.9704C24.5317 18.538 25.0356 19.1544 25.4964 19.8008L25.5357 19.8596C25.9596 20.4497 26.3874 21.1323 26.7719 21.84L26.8253 21.9462C26.9281 22.1388 27.0321 22.3751 27.1223 22.6164L27.1362 22.6576C27.2183 22.8894 27.3101 23.1269 27.4116 23.3703C27.6367 23.8746 27.8779 24.3834 28.1351 24.8969C28.3923 25.4103 28.6335 25.9096 28.8586 26.3947L29.5338 27.8462C29.7712 28.3538 30.0364 28.7914 30.3449 29.1952L30.3309 29.1765C30.5886 29.4478 30.9325 29.6378 31.3184 29.7041L31.3285 29.7054C31.7956 29.8204 32.1891 29.9504 32.5698 30.1042L32.5102 30.0829C32.6917 30.1642 32.9252 30.2505 33.1651 30.3267L33.2159 30.3405C33.485 30.4218 33.7185 30.5293 33.933 30.6643L33.9216 30.6581C34.3366 30.8869 34.6882 31.1119 35.0233 31.357L34.9966 31.3382C35.3444 31.5899 35.6922 31.8275 36.04 32.0508C36.2041 32.1717 36.4795 32.348 36.8662 32.5797C37.2529 32.8114 37.4577 33.0281 37.4806 33.2298C37.3359 33.2248 37.1645 33.2211 36.9932 33.2211C36.3687 33.2211 35.7544 33.2611 35.1528 33.3386L35.2238 33.3311C34.5435 33.4211 33.9267 33.5849 33.3466 33.8187L33.3974 33.8012C33.254 33.8625 33.0826 33.9187 32.9049 33.9625L32.8808 33.9675C32.7006 33.9937 32.561 34.1363 32.5432 34.3138C32.6206 34.4088 32.6828 34.5201 32.7247 34.6401L32.7272 34.6476C32.7704 34.7752 32.8224 34.8852 32.8859 34.9877L32.8821 34.9802C33.0331 35.244 33.1956 35.4716 33.3784 35.6816L33.3733 35.6754C33.5522 35.8929 33.7541 36.0817 33.9774 36.243L33.9863 36.2492C34.1928 36.4109 34.4077 36.5772 34.6311 36.7481C34.8354 36.9056 35.0665 37.0606 35.3063 37.2007L35.3368 37.2169C35.6973 37.4345 36.1161 37.642 36.5527 37.8158L36.6111 37.8358C37.0858 38.0233 37.4932 38.2409 37.8715 38.4997L37.8512 38.4859C38.0974 38.6268 38.3428 38.7831 38.5873 38.9548C38.8319 39.1265 39.0671 39.2928 39.293 39.4536C39.3857 39.5437 39.4669 39.6437 39.5355 39.7524L39.5393 39.7587C39.6548 39.8887 39.8147 39.9775 39.9962 40H40V39.94C39.8883 39.8562 39.8058 39.7399 39.7665 39.6062L39.7652 39.6012C39.7335 39.4736 39.6865 39.3624 39.623 39.2598L39.6256 39.2648L39.6306 39.2698ZM16.0532 15.2586C15.889 15.2586 15.7355 15.2636 15.5925 15.2736C15.4465 15.2836 15.3107 15.3099 15.1825 15.3524L15.1939 15.3486V15.3786H15.2548C15.3369 15.4995 15.4401 15.6353 15.5645 15.7862C15.6889 15.9371 15.8015 16.0834 15.9021 16.225L16.3933 17.2228L16.4543 17.1927C16.5977 17.0902 16.7081 16.9527 16.7741 16.7914L16.7767 16.7852C16.8427 16.6114 16.8807 16.4088 16.8807 16.1988C16.8807 16.1763 16.8807 16.1538 16.8795 16.1313V16.135C16.8223 16.08 16.7754 16.015 16.7424 15.9425L16.7411 15.9387L16.6383 15.7112C16.571 15.6062 16.4771 15.5237 16.3667 15.4711L16.3629 15.4699C16.2436 15.4136 16.142 15.3424 16.0532 15.2586Z" fill="white"/>
</svg>
