<svg width="49" height="49" viewBox="0 0 49 49" fill="none" xmlns="http://www.w3.org/2000/svg">
<circle cx="24.5" cy="24.5" r="24.5" fill="black"/>
<path d="M34.2035 41.6264C34.0626 41.7009 34.0705 41.7309 34.2114 41.6597C34.2527 41.642 34.2903 41.6168 34.3223 41.5853C34.3223 41.5599 34.3191 41.5631 34.2035 41.6264ZM34.4854 41.4776C34.4188 41.5299 34.4189 41.533 34.4996 41.4918C34.5439 41.4697 34.5819 41.4443 34.5819 41.4364C34.5819 41.4063 34.5629 41.4143 34.4854 41.4776ZM34.6706 41.3652C34.6041 41.4174 34.6041 41.4206 34.6849 41.3794C34.7292 41.3573 34.7672 41.3319 34.7672 41.324C34.7672 41.2939 34.7482 41.3018 34.6706 41.3652ZM34.8559 41.2543C34.7894 41.3066 34.7894 41.3098 34.8701 41.2686C34.9145 41.2464 34.9525 41.2211 34.9525 41.2132C34.9525 41.1831 34.9335 41.191 34.8559 41.2543ZM35.1124 41.0881C34.9825 41.1704 34.9414 41.2258 35.057 41.1625C35.1393 41.115 35.2723 41.0137 35.2501 41.0105C35.2016 41.0313 35.1554 41.0574 35.1124 41.0881ZM23.7547 6.00565C23.6723 6.01357 23.4126 6.0389 23.1783 6.0579C17.7821 6.54402 12.7263 9.45594 9.52465 13.9323C7.75466 16.3892 6.60417 19.2372 6.17101 22.2342C6.019 23.2777 6 23.5864 6 25.002C6 26.4176 6.019 26.7248 6.17101 27.7699C7.20338 34.9048 12.2813 40.8996 19.1675 43.1212C20.401 43.5186 21.701 43.7894 23.1783 43.9525C23.7547 44.0158 26.2422 44.0158 26.8185 43.9525C29.3694 43.6706 31.5323 43.0389 33.6636 41.951C33.9897 41.7832 34.0531 41.7389 34.0088 41.7024C32.9677 40.3269 31.9363 38.944 30.9148 37.5539L27.8762 33.4496L24.0698 27.8158C22.8041 25.9306 21.5263 24.0537 20.2363 22.1851C20.2221 22.1819 20.2063 24.6853 20.1999 27.7414C20.1888 33.0933 20.1857 33.3087 20.1176 33.4354C20.053 33.5834 19.9372 33.7031 19.7914 33.7726C19.6727 33.8328 19.5681 33.8439 19.0076 33.8439H18.3648L18.1938 33.7362C18.0882 33.6697 18.0024 33.5762 17.9452 33.4655L17.8676 33.2976L17.8755 25.8507L17.8866 18.4007L18.0022 18.2566C18.0798 18.1654 18.1731 18.0887 18.2777 18.0302C18.4297 17.9558 18.4899 17.9479 19.1327 17.9479C19.8912 17.9479 20.0162 17.9779 20.2142 18.1933C21.755 20.4865 23.2831 22.7883 24.7981 25.0986C27.2651 28.8387 30.6361 33.9452 32.2939 36.4534L35.3024 41.0105L35.4544 40.9107C36.902 39.9478 38.2146 38.796 39.3575 37.4858C41.7515 34.7459 43.3041 31.3734 43.829 27.773C43.981 26.7296 44 26.4208 44 25.0052C44 23.5896 43.981 23.2824 43.829 22.2374C42.7966 15.1024 37.7187 9.10758 30.8325 6.88604C29.5456 6.47632 28.2203 6.19884 26.8771 6.0579C26.5209 6.02148 24.065 5.98032 23.7578 6.0104L23.7547 6.00565ZM31.5323 17.4982C31.6209 17.5427 31.6997 17.6044 31.7641 17.6797C31.8285 17.755 31.8773 17.8424 31.9076 17.9368C31.9377 18.0334 31.944 20.0982 31.9377 24.7519L31.9266 31.4307L30.7485 29.6256L29.5673 27.8205V22.9657C29.5673 19.8274 29.5816 18.0635 29.6037 17.9779C29.6306 17.8793 29.6769 17.787 29.74 17.7065C29.8031 17.626 29.8817 17.5589 29.9711 17.5093C30.1231 17.4317 30.1785 17.4237 30.7628 17.4237C31.3122 17.4237 31.4088 17.4317 31.5323 17.4982Z" fill="white"/>
</svg>
