<svg width="49" height="49" viewBox="0 0 49 49" fill="none" xmlns="http://www.w3.org/2000/svg">
<circle cx="24.5" cy="24.5" r="24.5" fill="#0E0088"/>
<path d="M16.3083 13.152C19.2949 13.152 21.4709 13.7387 22.8363 14.912C24.2016 16.0853 24.8843 17.7387 24.8843 19.872C24.8843 20.8107 24.7243 21.7173 24.4043 22.592C24.1056 23.4453 23.6043 24.2133 22.9003 24.896C22.1963 25.5787 21.2576 26.1227 20.0843 26.528C18.9109 26.912 17.4709 27.104 15.7643 27.104H13.1403V36H10.2603V13.152H16.3083ZM16.0523 15.616H13.1403V24.64H15.4443C16.8949 24.64 18.1003 24.4907 19.0603 24.192C20.0203 23.872 20.7349 23.3707 21.2043 22.688C21.6736 22.0053 21.9083 21.1093 21.9083 20C21.9083 18.528 21.4389 17.4293 20.5003 16.704C19.5616 15.9787 18.0789 15.616 16.0523 15.616ZM40.4193 31.264C40.4193 32.3733 40.1419 33.3013 39.5873 34.048C39.0326 34.7947 38.2433 35.36 37.2193 35.744C36.1953 36.128 34.9793 36.32 33.5713 36.32C32.3766 36.32 31.3419 36.224 30.4673 36.032C29.6139 35.84 28.8566 35.5733 28.1953 35.232V32.672C28.8779 33.0133 29.6993 33.3333 30.6593 33.632C31.6406 33.9093 32.6326 34.048 33.6353 34.048C35.0646 34.048 36.0993 33.824 36.7393 33.376C37.3793 32.9067 37.6993 32.288 37.6993 31.52C37.6993 31.0933 37.5819 30.7093 37.3473 30.368C37.1126 30.0267 36.6859 29.6853 36.0673 29.344C35.4699 29.0027 34.6059 28.6187 33.4753 28.192C32.3659 27.7653 31.4166 27.3387 30.6273 26.912C29.8379 26.4853 29.2299 25.9733 28.8033 25.376C28.3766 24.7787 28.1633 24.0107 28.1633 23.072C28.1633 21.6213 28.7499 20.5013 29.9233 19.712C31.1179 18.9227 32.6753 18.528 34.5953 18.528C35.6406 18.528 36.6113 18.6347 37.5073 18.848C38.4246 19.04 39.2779 19.3173 40.0673 19.68L39.1073 21.92C38.6379 21.7067 38.1366 21.5253 37.6033 21.376C37.0913 21.2053 36.5686 21.0773 36.0353 20.992C35.5019 20.8853 34.9579 20.832 34.4033 20.832C33.2513 20.832 32.3659 21.024 31.7473 21.408C31.1499 21.7707 30.8513 22.272 30.8513 22.912C30.8513 23.3813 30.9899 23.7867 31.2673 24.128C31.5446 24.448 32.0033 24.768 32.6433 25.088C33.3046 25.3867 34.1793 25.7493 35.2673 26.176C36.3553 26.5813 37.2833 26.9973 38.0513 27.424C38.8193 27.8507 39.4059 28.3733 39.8113 28.992C40.2166 29.5893 40.4193 30.3467 40.4193 31.264Z" fill="white"/>
</svg>
