<svg width="49" height="49" viewBox="0 0 49 49" fill="none" xmlns="http://www.w3.org/2000/svg">
<circle cx="24.5" cy="24.5" r="24.5" fill="#2300C0"/>
<path d="M18.7359 20.9028C17.9731 20.0146 16.7595 19.5704 15.0958 19.5704H9.56576L7 33H9.87562L10.5578 29.4296H13.021C14.108 29.4296 15.0021 29.3138 15.7041 29.081C16.406 28.849 17.044 28.4595 17.6182 27.9128C18.1001 27.4621 18.4897 26.9652 18.7885 26.4216C19.0867 25.8784 19.2986 25.2789 19.424 24.6231C19.7283 23.0311 19.4986 21.7912 18.7359 20.9028ZM16.4516 24.418C16.2527 25.4574 15.8699 26.1992 15.3026 26.6436C14.7349 27.0881 13.8713 27.3103 12.7121 27.3103H10.9626L12.0364 21.6896H14.0069C15.0995 21.6896 15.8275 21.8947 16.1915 22.305C16.5552 22.7156 16.6421 23.4198 16.4516 24.418ZM30.1047 23.1802L28.9109 29.4296H26.0125L27.1475 23.4877C27.2766 22.8116 27.2293 22.3505 27.0048 22.1048C26.7807 21.8589 26.3033 21.7357 25.5733 21.7357H23.2932L21.8235 29.4296H18.9704L21.5361 16H24.3893L23.7071 19.5704H26.249C27.848 19.5704 28.9512 19.8544 29.5584 20.4217C30.1656 20.9893 30.3473 21.9089 30.1047 23.1802ZM41.1818 20.9028C40.419 20.0146 39.2054 19.5704 37.5419 19.5704H32.0119L29.4462 33H32.3218L33.004 29.4296H35.4672C36.5541 29.4296 37.4479 29.3138 38.15 29.081C38.8519 28.849 39.4899 28.4595 40.0641 27.9128C40.546 27.4621 40.9359 26.9652 41.2345 26.4216C41.5327 25.8784 41.7445 25.2789 41.8699 24.6231C42.1741 23.0311 41.9448 21.7912 41.1818 20.9028ZM38.8977 24.418C38.6989 25.4574 38.3161 26.1992 37.7484 26.6436C37.181 27.0881 36.3172 27.3103 35.1579 27.3103H33.4088L34.4826 21.6896H36.4528C37.5454 21.6896 38.2734 21.8947 38.6377 22.305C39.0014 22.7156 39.088 23.4198 38.8977 24.418Z" fill="white"/>
</svg>
