<svg width="49" height="49" viewBox="0 0 49 49" fill="none" xmlns="http://www.w3.org/2000/svg">
<circle cx="24.5" cy="24.5" r="24.5" fill="#0048FF"/>
<path d="M25.0093 21.455C25.6961 21.4551 26.3676 21.6593 26.9391 22.0421C27.5107 22.4248 27.9568 22.969 28.2213 23.606C28.4858 24.2431 28.5569 24.9445 28.4256 25.6221C28.2943 26.2996 27.9664 26.923 27.4834 27.4137C27.0003 27.9043 26.3836 28.2404 25.7109 28.3796C25.0382 28.5188 24.3395 28.4548 23.7029 28.1958C23.0663 27.9367 22.5201 27.4942 22.1332 26.9239C21.7463 26.3535 21.536 25.6809 21.5286 24.9906C21.5262 24.5288 21.6143 24.071 21.7879 23.6433C21.9614 23.2157 22.2171 22.8266 22.5404 22.4983C22.8636 22.17 23.248 21.9089 23.6716 21.7299C24.0952 21.5509 24.5498 21.4575 25.0093 21.455ZM16.3913 39.9563C17.564 40.6672 20.114 39.5822 23.0921 36.7761C22.0968 35.6393 21.1587 34.453 20.2815 33.2218C18.7802 33.0528 17.289 32.803 15.8143 32.4735C14.8651 36.4768 15.2187 39.2267 16.3913 39.9563ZM17.7129 29.2184L17.1731 28.2644C16.9627 28.7898 16.7825 29.327 16.6333 29.8732C17.1359 29.9854 17.6943 30.079 18.2713 30.1725L17.7129 29.2184ZM29.886 27.7967L31.3937 24.9906L29.886 22.1846C29.3276 21.1931 28.732 20.3139 28.1922 19.4346C27.1871 19.3785 26.1261 19.3785 25.0093 19.3785C23.8925 19.3785 22.8316 19.3785 21.8264 19.3785C21.2866 20.2578 20.691 21.137 20.1326 22.1285L18.6249 24.9906L20.1326 27.7967C20.691 28.7882 21.2866 29.6674 21.8264 30.5466C22.8316 30.5466 23.8925 30.5466 25.0093 30.5466C26.1261 30.5466 27.1871 30.5466 28.1922 30.5466C28.732 29.6674 29.3276 28.7882 29.886 27.7967ZM25.0093 15.2256C24.6557 15.6371 24.2834 16.0674 23.9111 16.5725H26.1075C25.7352 16.0674 25.363 15.6371 25.0093 15.2256ZM25.0093 34.7557C25.363 34.3442 25.7352 33.9139 26.1075 33.4088H23.9111C24.2834 33.9139 24.6557 34.3442 25.0093 34.7557ZM33.6087 10.025C32.4546 9.31413 29.886 10.3991 26.9265 13.2052C27.9219 14.342 28.8599 15.5283 29.7371 16.7595C31.237 16.9038 32.7282 17.1286 34.2043 17.433C35.1536 13.4297 34.7999 10.6797 33.6087 9.95017M32.3057 20.688L32.8455 21.6421C33.0559 21.1166 33.2362 20.5795 33.3853 20.0333C32.8827 19.921 32.3243 19.8275 31.7473 19.734L32.3057 20.688ZM35.0047 7.59308C37.7408 9.16447 38.0386 13.2987 36.866 18.1252C41.5938 19.5282 45 21.8666 45 25.0094C45 28.1521 41.5938 30.4905 36.866 31.8936C38.02 36.72 37.7222 40.8542 35.0047 42.4256C32.2871 43.997 28.5831 42.2011 25.0093 38.7778C21.4356 42.2011 17.7315 43.997 14.9953 42.4256C12.2592 40.8542 11.98 36.8135 13.134 31.8936C8.40624 30.4905 5 28.1521 5 25.0094C5 21.8666 8.40624 19.5095 13.134 18.1064C11.98 13.28 12.2778 9.14576 14.9953 7.57437C17.7129 6.00298 21.4356 7.79885 25.0093 11.2222C28.5831 7.79885 32.2871 6.00298 35.0047 7.57437M34.4649 24.9906C35.1113 26.3678 35.683 27.7791 36.1773 29.2184C40.0861 28.0399 42.2825 26.3563 42.2825 24.9906C42.2825 23.625 40.0302 21.9414 36.1773 20.7628C35.683 22.2022 35.1113 23.6135 34.4649 24.9906ZM15.5537 24.9906C14.9073 23.6135 14.3357 22.2022 13.8413 20.7628C9.93253 21.9414 7.73616 23.625 7.73616 24.9906C7.73616 26.3563 9.98837 28.0399 13.8413 29.2184C14.3357 27.7791 14.9073 26.3678 15.5537 24.9906ZM32.3057 29.2184L31.7473 30.1725C32.3243 30.1725 32.8827 29.9854 33.3853 29.8732C33.2362 29.327 33.0559 28.7898 32.8455 28.2644L32.3057 29.2184ZM26.8706 36.7761C29.8302 39.5822 32.4546 40.6672 33.5528 39.9563C34.651 39.2454 35.0977 36.5516 34.1484 32.4735C32.6724 32.7779 31.1812 33.0027 29.6812 33.1469C28.8061 34.4037 27.868 35.615 26.8706 36.7761ZM17.7129 20.7628L18.2713 19.8088C17.6943 19.8088 17.1359 19.9959 16.6333 20.1081C16.7825 20.6543 16.9627 21.1915 17.1731 21.7169L17.7129 20.7628ZM23.148 13.2052C20.1326 10.3991 17.564 9.31413 16.3913 10.025C15.2187 10.7359 14.8651 13.4297 15.8143 17.5078C17.2904 17.2034 18.7816 16.9786 20.2815 16.8344C21.1748 15.5763 22.1315 14.365 23.148 13.2052Z" fill="white"/>
</svg>
