<svg width="49" height="49" viewBox="0 0 49 49" fill="none" xmlns="http://www.w3.org/2000/svg">
<circle cx="24.5" cy="24.5" r="24.5" fill="#BE0000"/>
<path d="M41.3395 28.1011C41.3255 28.4111 40.9157 28.7583 40.0728 29.1983C38.337 30.1016 29.3493 33.8042 27.437 34.7958C26.7532 35.2823 25.8998 35.5737 24.9802 35.5737C24.236 35.5737 23.537 35.3833 22.9275 35.0489L22.9495 35.0605C21.4355 34.3383 11.8742 30.4743 10.1512 29.6511C9.29089 29.2448 8.85201 28.893 8.83691 28.5679V31.8537C8.83691 32.1811 9.28973 32.5306 10.1512 32.9369C11.8742 33.7601 21.439 37.6241 22.9495 38.3463C23.5347 38.6679 24.2325 38.8571 24.9744 38.8571C25.8975 38.8571 26.752 38.5646 27.4498 38.0665L27.437 38.0758C29.3493 37.0784 38.337 33.3839 40.0728 32.4783C40.9552 32.0185 41.3453 31.6656 41.3453 31.3382C41.3453 31.0107 41.3453 28.0977 41.3453 28.0977L41.3395 28.1011Z" fill="white"/>
<path d="M41.3371 22.7441C41.322 23.0541 40.9133 23.4001 40.0715 23.8402C38.3358 24.7435 29.348 28.4461 27.4358 29.4376C26.7508 29.9264 25.8962 30.2178 24.9732 30.2178C24.2313 30.2178 23.5335 30.0286 22.9263 29.6965L22.9483 29.7081C21.4343 28.9802 11.873 25.1162 10.15 24.293C9.28967 23.8866 8.85079 23.5348 8.83569 23.2097V26.4955C8.83569 26.8229 9.2885 27.1724 10.15 27.5788C11.873 28.402 21.4366 32.2659 22.9483 32.9881C23.5358 33.3109 24.2348 33.5013 24.979 33.5013C25.8997 33.5013 26.7519 33.2099 27.4497 32.7153L27.4369 32.7246C29.3492 31.7272 38.3369 28.0304 40.0727 27.1271C40.9551 26.6662 41.3452 26.3144 41.3452 25.9846C41.3452 25.6549 41.3452 22.7441 41.3452 22.7441H41.3371Z" fill="white"/>
<path d="M41.3371 17.1873C41.3533 16.8564 40.9214 16.5673 40.0518 16.2468C38.3671 15.628 29.4258 12.0717 27.7167 11.4447C27.1037 11.1637 26.3885 11 25.6338 11C24.7816 11 23.9781 11.209 23.2711 11.5782L23.2989 11.5643C21.2891 12.2864 11.7766 16.0169 10.085 16.6787C9.23855 17.0119 8.82405 17.3196 8.83914 17.647V20.9328C8.83914 21.2602 9.29195 21.6097 10.1535 22.0161C11.8765 22.8393 21.4401 26.7044 22.9518 27.4266C23.5369 27.7482 24.2347 27.9363 24.9766 27.9363C25.8997 27.9363 26.7542 27.6437 27.4532 27.1468L27.4404 27.1561C29.3527 26.1587 38.3404 22.4619 40.0762 21.5586C40.9586 21.0977 41.3487 20.7459 41.3487 20.4162C41.3487 20.0864 41.3487 17.1756 41.3487 17.1756H41.3382L41.3371 17.1873ZM20.4764 20.3035L28.0093 19.1471L25.7337 22.484L20.4764 20.3035ZM37.1387 17.2987L32.2007 19.2493L27.7481 17.481L32.6779 15.5316L37.134 17.2929L37.1387 17.2987ZM24.0594 14.0652L23.3303 12.7218L25.6036 13.6101L27.7469 12.9088L27.1676 14.2974L29.3515 15.1101L26.5348 15.4027L25.9043 16.9249L24.8838 15.2332L21.6328 14.9406L24.0606 14.0652H24.0594ZM18.455 15.96C20.6796 15.96 22.4804 16.659 22.4804 17.5205C22.4804 18.382 20.6703 19.0809 18.455 19.0809C16.2397 19.0809 14.4215 18.3808 14.4215 17.5205C14.4215 16.6601 16.2246 15.96 18.455 15.96Z" fill="white"/>
</svg>
