<svg width="49" height="49" viewBox="0 0 49 49" fill="none" xmlns="http://www.w3.org/2000/svg">
<circle cx="24.5" cy="24.5" r="24.5" fill="#0048FF"/>
<path d="M31.5648 31.03C32.796 30.9212 33.7509 29.812 33.6886 28.4867C33.6234 27.1614 32.5622 26.0972 31.2687 26.0972H31.1823C29.8463 26.1421 28.8049 27.2919 28.8474 28.6622C28.8899 29.3567 29.1676 29.9222 29.5473 30.334C28.0625 33.289 25.834 35.4611 22.4578 37.2866C20.1867 38.5017 17.7881 38.9599 15.4532 38.6336C13.5009 38.3523 11.9736 37.4592 11.0386 36.0266C9.63878 33.8531 9.51127 31.5085 10.6773 29.1624C11.5288 27.4674 12.801 26.2291 13.6511 25.6201C13.4386 25.0561 13.1836 24.1005 13.056 23.3842C6.77123 27.9908 7.4102 34.2895 9.32001 37.2663C10.7425 39.4384 13.6511 40.8275 16.8346 40.8275C17.6832 40.8275 18.5758 40.7637 19.4457 40.5462C24.9655 39.4601 29.1464 36.0715 31.545 31.0749L31.5648 31.03ZM39.1417 25.5984C35.8534 21.6443 31.0123 19.4722 25.4925 19.4722H24.77C24.4115 18.6689 23.5841 18.1687 22.649 18.1687H22.5853C21.2493 18.1687 20.2079 19.3432 20.2519 20.7105C20.2944 22.0126 21.3768 23.1 22.6717 23.1H22.7765C23.7329 23.0566 24.5603 22.4476 24.8989 21.579H25.6852C28.9565 21.579 32.0536 22.5563 34.8772 24.4674C37.0406 25.9232 38.592 27.8342 39.4619 30.1165C40.2241 31.9841 40.1831 33.8096 39.3982 35.332C38.1882 37.7202 36.1495 38.9816 33.4548 38.9816C31.7561 38.9816 30.1013 38.4379 29.2512 38.0479C28.7426 38.4799 27.8925 39.1977 27.2762 39.6327C29.1435 40.4998 31.0335 41 32.8583 41C36.9981 41 40.074 38.6119 41.2428 36.3079C42.5151 33.7008 42.4102 29.3132 39.1616 25.5549L39.1417 25.5984ZM17.1944 31.8101C17.2355 33.1136 18.318 34.1996 19.6143 34.1996H19.6993C21.058 34.1561 22.0979 33.0063 22.0342 31.6361C22.0342 30.3325 20.9305 29.2479 19.6356 29.2479H19.5491C19.4641 29.2479 19.338 29.2479 19.2304 29.29C17.4693 26.2479 16.7255 22.9884 17.0032 19.4722C17.1718 16.8217 18.0218 14.5176 19.5491 12.6066C20.8228 10.9768 23.2214 10.1721 24.8564 10.13C29.4411 10.0416 31.3523 15.8879 31.4996 18.2122L33.622 18.8632C33.1332 11.738 28.8049 8 24.6651 8C20.7803 8 17.1944 10.8898 15.7493 15.1266C13.7758 20.7757 15.0707 26.2059 17.4906 30.5515C17.2795 30.8342 17.1519 31.333 17.1944 31.8101Z" fill="white"/>
</svg>
