<svg width="49" height="49" viewBox="0 0 49 49" fill="none" xmlns="http://www.w3.org/2000/svg">
<circle cx="24.5" cy="24.5" r="24.5" fill="#FF0099"/>
<path d="M41.9501 30.4195C41.832 29.4074 41.3235 28.6219 40.5559 28.0064C39.6669 27.2942 38.6261 27.0009 37.517 26.9543C36.6129 26.9165 35.7282 27.0543 34.875 27.372C34.6321 27.462 34.3936 27.5687 34.1486 27.6698C34.1161 27.6087 34.0814 27.5509 34.0532 27.4898C33.8017 26.9632 33.4981 26.4599 33.432 25.8566C33.3843 25.4277 33.3257 24.9989 33.4255 24.5756C33.5209 24.1678 33.6466 23.7668 33.7637 23.3635C33.8244 23.1557 33.7822 23.0402 33.5892 22.9468C33.522 22.9146 33.4493 22.8857 33.3756 22.8746C32.9007 22.8046 32.4335 22.8446 31.9738 22.9813C31.8112 23.0302 31.693 23.1235 31.6572 23.3079C31.6366 23.4135 31.5943 23.5146 31.5661 23.619C31.4458 24.0534 31.3612 24.4956 31.1672 24.9089C30.6804 25.9466 30.1264 26.9443 29.5572 27.9353C29.4954 28.042 29.4315 28.1475 29.3534 28.2775C29.1539 27.8498 28.9414 27.4665 28.8764 27.0154C28.8037 26.5065 28.7463 25.9988 28.8699 25.4933C28.962 25.1167 29.0824 24.7467 29.1929 24.3756C29.2461 24.199 29.2211 24.1067 29.065 24.0134C28.9859 23.9668 28.897 23.9245 28.8081 23.9112C28.3159 23.8368 27.8313 23.8757 27.3575 24.0334C27.21 24.0823 27.1331 24.1801 27.0875 24.3356C26.9553 24.7945 26.8425 25.2644 26.6571 25.7011C25.9047 27.4676 25.1317 29.2252 24.3587 30.9817C24.1972 31.3483 24.0085 31.7028 23.8264 32.0594C23.7798 32.1505 23.7137 32.2294 23.6562 32.3149C23.6096 32.2594 23.5922 32.2205 23.5922 32.1827C23.5933 31.9572 23.5673 31.7239 23.6096 31.5061C23.7364 30.8462 23.8828 30.1884 24.0378 29.5341C24.1647 28.9941 24.3132 28.4586 24.4552 27.9209C24.5029 27.7409 24.504 27.5731 24.3772 27.422C24.1657 27.1687 23.7234 27.1132 23.4611 27.3087C23.4329 27.3298 23.3993 27.3442 23.345 27.3765C23.3548 27.2909 23.3602 27.2376 23.3678 27.1843C23.4231 26.7732 23.4339 26.3643 23.3244 25.9588C23.1868 25.4544 22.8366 25.1644 22.3259 25.18C22.0874 25.1878 21.8381 25.2289 21.618 25.3178C20.691 25.6899 19.9788 26.3488 19.3727 27.142C19.3174 27.2143 19.2448 27.2798 19.1678 27.3231C18.384 27.7687 17.5969 28.2086 16.8109 28.6508C16.5171 28.8152 16.2233 28.9808 15.936 29.1419C15.7018 28.9119 15.4882 28.6741 15.2454 28.4719C14.506 27.8542 13.7547 27.252 13.0109 26.641C12.3518 26.0999 11.7121 25.5355 11.2232 24.8189C10.8589 24.2856 10.6247 23.7023 10.603 23.0424C10.5749 22.2025 10.8069 21.4347 11.2243 20.7193C11.7587 19.8049 12.4862 19.0716 13.2874 18.4061C14.1341 17.7028 15.0502 17.1062 15.9999 16.5618C17.328 15.7997 18.6951 15.1253 20.1598 14.6798C21.6624 14.2231 23.1857 13.9621 24.7577 14.1443C25.3757 14.2154 25.9752 14.3609 26.527 14.6709C26.9488 14.9075 27.2946 15.2175 27.4561 15.703C27.6144 16.1808 27.6101 16.664 27.4995 17.1484C27.2762 18.1295 26.7514 18.9394 26.0912 19.6627C25.0092 20.8481 23.6887 21.6547 22.2013 22.188C21.3437 22.4958 20.4612 22.6891 19.5549 22.7669C18.8155 22.8302 18.0913 22.7635 17.3909 22.4991C16.9269 22.3247 16.5236 22.0569 16.1983 21.6692C16.1398 21.5992 16.0661 21.5247 15.9577 21.5892C15.8514 21.6525 15.833 21.7569 15.8688 21.8614C15.9284 22.0358 15.9826 22.2158 16.0758 22.3713C16.3078 22.7613 16.6472 23.0446 17.0201 23.2879C17.7367 23.7546 18.5368 23.9112 19.3673 23.9479C20.6271 24.0034 21.8565 23.8112 23.0675 23.4646C24.7978 22.9702 26.3015 22.0969 27.5082 20.7193C28.5132 19.5727 29.2298 18.2772 29.3838 16.714C29.4586 15.9508 29.3794 15.2031 29.0303 14.5076C28.652 13.7532 28.0513 13.2332 27.3325 12.8477C26.2874 12.2855 25.1577 12.0644 23.9923 12C23.6031 12 23.2139 12 22.8247 12C21.412 12.07 20.0471 12.3744 18.7201 12.8688C17.7161 13.2432 16.7307 13.6654 15.7744 14.1543C13.6918 15.2208 11.7522 16.4963 10.1596 18.2639C9.36603 19.1449 8.69386 20.1115 8.3079 21.2559C8.19515 21.5914 8.12576 21.9469 8.04445 22.2936C8.03795 22.3225 8.06939 22.3502 8 22.3791C8 22.5424 8 22.7046 8 22.868C8.06939 22.9935 8.07697 23.1179 8.10841 23.2435C8.31332 24.0579 8.73505 24.7578 9.25761 25.3955C10.0024 26.3043 10.9034 27.0354 11.8379 27.7242C12.6477 28.3208 13.4695 28.9041 14.2826 29.4963C14.4225 29.5974 14.5515 29.7152 14.7033 29.8396C14.5732 29.9118 14.4637 29.9751 14.3509 30.034C13.2776 30.5917 12.2455 31.2172 11.2936 31.975C10.7201 32.4316 10.165 32.9171 9.77367 33.5504C9.14378 34.5703 8.92044 35.6569 9.38988 36.8168C9.52757 37.1556 9.73681 37.4489 10.0317 37.6645C10.1271 37.7345 10.2344 37.8045 10.3461 37.8311C10.6323 37.9 10.925 37.9456 11.2156 38C11.4899 38 11.7631 38 12.0374 38C12.947 37.9167 13.7742 37.5978 14.5212 37.069C15.6899 36.2424 16.477 35.1347 16.8163 33.7115C17.0624 32.6782 17.0722 31.6428 16.7827 30.614C16.7556 30.5184 16.722 30.4251 16.6862 30.3329C16.6504 30.2407 16.6092 30.1507 16.5604 30.0351C17.1806 29.6696 17.8029 29.303 18.4241 28.9363C18.4339 28.9441 18.4425 28.953 18.4523 28.9608C18.4187 29.0741 18.3829 29.1874 18.3515 29.303C18.1303 30.1318 17.9828 30.975 18.036 31.835C18.0923 32.7516 18.3417 33.6093 18.8653 34.3759C19.2882 34.9958 20.2975 35.018 20.7474 34.397C20.9068 34.1759 21.0618 33.9459 21.1778 33.6993C21.4814 33.056 21.7633 32.4016 22.0527 31.7516C22.0658 31.7239 22.0766 31.6961 22.1037 31.6328C22.0831 31.9405 22.0582 32.2105 22.0473 32.4816C22.03 32.9038 22.0538 33.3237 22.1948 33.7259C22.3151 34.0703 22.52 34.327 22.9049 34.3714C23.1672 34.4025 23.3776 34.2792 23.5705 34.1226C23.873 33.8781 24.118 33.577 24.3002 33.2337C24.8152 32.2638 25.3442 31.3006 25.8115 30.3062C26.3167 29.2308 26.7579 28.1242 27.2274 27.0309C27.2534 26.9709 27.2762 26.9098 27.3054 26.8365C27.416 27.2831 27.4941 27.7198 27.6361 28.1342C27.8009 28.6141 28.0058 29.083 28.2291 29.5385C28.3343 29.754 28.3224 29.894 28.176 30.074C27.5646 30.8295 26.9639 31.5939 26.3622 32.3583C26.2289 32.5271 26.0966 32.6982 25.986 32.8827C25.9188 32.9949 25.8744 33.1304 25.8559 33.2615C25.8202 33.5115 25.9698 33.7515 26.2311 33.8092C26.4685 33.8615 26.7222 33.8815 26.965 33.8626C27.8042 33.7992 28.5663 33.4971 29.2406 32.986C30.1134 32.3227 30.3942 31.4195 30.1828 30.3473C30.1253 30.0562 30.0245 29.7729 29.9258 29.4929C29.8814 29.3663 29.8792 29.2774 29.9594 29.1596C30.6576 28.1386 31.2539 27.0543 31.8079 25.9466C31.8296 25.9033 31.8524 25.8588 31.8903 25.8122C32.0703 26.771 32.3402 27.6942 32.8248 28.5319C32.5777 28.7763 32.3326 28.9974 32.1115 29.2419C31.6236 29.7785 31.2008 30.3629 30.9807 31.0739C30.8864 31.3806 30.8127 31.6917 30.8549 32.0205C30.9211 32.5294 31.3276 32.8593 31.8155 32.7438C32.8595 32.496 33.7616 31.9916 34.4207 31.0984C34.8641 30.4973 34.9042 29.8263 34.7189 29.123C34.6679 28.9319 34.6072 28.7441 34.5421 28.5241C34.8002 28.4419 35.0517 28.3442 35.3108 28.2831C36.6606 27.9675 37.9952 28.0231 39.295 28.5219C40.054 28.813 40.6676 29.3019 41.0308 30.0696C41.4753 31.0084 41.2292 31.8983 40.3662 32.4916C40.286 32.5471 40.1938 32.5905 40.1266 32.6593C40.0854 32.7016 40.0615 32.7871 40.0713 32.8449C40.0767 32.8793 40.1656 32.9215 40.2155 32.9215C40.4995 32.9193 40.7294 32.7671 40.9505 32.6105C41.5045 32.2183 41.8699 31.6894 41.9566 30.995C41.9588 30.975 41.9306 30.9562 42 30.9373C42 30.7828 42 30.6295 42 30.4751C41.9306 30.4562 41.9599 30.4373 41.9577 30.4173L41.9501 30.4195ZM15.5457 32.2972C15.4557 33.5359 14.9082 34.5403 14.0127 35.3524C13.5086 35.8102 12.9318 36.1357 12.2585 36.2501C12.0146 36.2913 11.7652 36.3013 11.5278 36.1979C11.1907 36.0502 11.1148 35.7435 11.1083 35.4158C11.0985 34.8947 11.2763 34.4236 11.5202 33.9759C11.839 33.3915 12.3062 32.946 12.8049 32.5305C13.591 31.875 14.4442 31.3195 15.3169 30.7962C15.331 30.7873 15.3484 30.7828 15.3831 30.7684C15.5175 31.2795 15.5825 31.7839 15.5446 32.2983L15.5457 32.2972ZM22.365 26.9143C22.301 27.3098 22.2219 27.7053 22.1091 28.0886C21.7188 29.4152 21.219 30.7017 20.678 31.9694C20.5783 32.2038 20.433 32.4183 20.3062 32.6405C20.2867 32.6749 20.2574 32.7049 20.2292 32.7338C20.0731 32.8927 19.9235 32.8838 19.8443 32.676C19.7522 32.4349 19.6958 32.1772 19.647 31.9216C19.6145 31.7505 19.6221 31.5706 19.6123 31.395C19.6232 30.1473 19.9939 29.0119 20.6249 27.9564C20.8851 27.5209 21.1681 27.1065 21.5996 26.8298C21.7329 26.7454 21.8814 26.6776 22.0321 26.6332C22.262 26.5665 22.404 26.6765 22.3661 26.9132L22.365 26.9143ZM27.0171 32.9882C27.5743 32.3216 28.1305 31.6561 28.6888 30.9873C28.7582 31.7305 27.5266 33.2137 27.0171 32.9882ZM32.3576 31.6428C32.2394 31.7116 32.1104 31.7628 31.989 31.8261C31.8784 31.885 31.8415 31.8261 31.8383 31.7283C31.8361 31.6617 31.8459 31.5928 31.8632 31.5283C32.0887 30.7117 32.5039 30.0162 33.123 29.4496C33.1317 29.4407 33.1458 29.4374 33.1664 29.4263C33.4602 30.2684 33.1219 31.195 32.3576 31.6428Z" fill="white"/>
</svg>
