<svg width="49" height="49" viewBox="0 0 49 49" fill="none" xmlns="http://www.w3.org/2000/svg">
<circle cx="24.5" cy="24.5" r="24.5" fill="#6A00FF"/>
<path fill-rule="evenodd" clip-rule="evenodd" d="M24.9298 14.614C20.1152 14.614 17.1076 16.9058 15.9035 21.4912C17.7088 19.1994 19.8155 18.3397 22.2219 18.9123C23.5957 19.2392 24.5778 20.1888 25.6628 21.2387C27.4337 22.9493 29.4827 24.9298 33.9561 24.9298C38.7708 24.9298 41.7784 22.638 42.9825 18.0526C41.1772 20.3444 39.0723 21.2041 36.664 20.6316C35.2902 20.3046 34.3082 19.3551 33.2214 18.3051C31.4522 16.5928 29.4051 14.614 24.9298 14.614ZM15.9035 24.9298C11.0889 24.9298 8.08131 27.2216 6.8772 31.807C8.68246 29.5134 10.7892 28.6555 13.1956 29.228C14.5694 29.555 15.5515 30.5045 16.6383 31.5545C18.4074 33.2651 20.4564 35.2456 24.9316 35.2456C29.7463 35.2456 32.7538 32.9538 33.9579 28.3684C32.1527 30.6602 30.0459 31.5199 27.6395 30.9473C26.2657 30.6204 25.2837 29.6708 24.1987 28.6209C22.4259 26.9103 20.377 24.9298 15.9035 24.9298Z" fill="white"/>
</svg>
