<svg width="49" height="49" viewBox="0 0 49 49" fill="none" xmlns="http://www.w3.org/2000/svg">
<circle cx="24.5" cy="24.5" r="24.5" fill="#0084FF"/>
<path d="M11 25V39H39V11H11V25ZM33.5645 23.8847C34.2762 24.062 34.8175 24.3782 35.3157 24.8938C35.5735 25.1692 35.9562 25.6708 35.9865 25.7922C35.9958 25.8272 34.7778 26.6438 34.0405 27.1023C34.0137 27.1198 33.9063 27.0043 33.7873 26.827C33.4257 26.302 33.0488 26.0757 32.4713 26.036C31.622 25.9777 31.076 26.4222 31.0807 27.1642C31.0729 27.3466 31.114 27.5279 31.1997 27.6892C31.3863 28.0753 31.734 28.3075 32.8213 28.7777C34.8268 29.641 35.6843 30.2092 36.2175 31.0177C36.8125 31.9195 36.9467 33.3603 36.5418 34.4313C36.0985 35.5957 34.996 36.3867 33.4443 36.648C32.9648 36.7332 31.8273 36.7203 31.3117 36.627C30.187 36.4263 29.1207 35.871 28.4627 35.1418C28.2048 34.8583 27.702 34.1152 27.7335 34.0627C27.7463 34.044 27.8618 33.9728 27.9902 33.8982C28.1162 33.827 28.5863 33.5552 29.0308 33.2973L29.8358 32.8307L30.005 33.0803C30.2407 33.4397 30.7552 33.9332 31.0667 34.0977C31.9603 34.569 33.1865 34.5025 33.7908 33.96C33.9124 33.8576 34.0086 33.7285 34.0719 33.5828C34.1353 33.4371 34.164 33.2787 34.156 33.12C34.156 32.7957 34.1152 32.6533 33.946 32.4083C33.729 32.098 33.2845 31.8367 32.0222 31.2883C30.5778 30.6665 29.956 30.2803 29.3867 29.6667C29.0313 29.2617 28.7689 28.7838 28.6178 28.2667C28.5117 27.8712 28.4848 26.8795 28.5688 26.4805C28.8663 25.084 29.9198 24.1122 31.44 23.8228C31.9335 23.7295 33.0803 23.7645 33.5645 23.8847ZM26.9915 25.0537L27.0008 26.2005H23.355V36.5558H20.7767V26.2005H17.1343V25.0758C17.1343 24.4528 17.1472 23.9325 17.1647 23.9208C17.1787 23.9022 19.3965 23.8928 22.0845 23.8975L26.9787 23.9115L26.9915 25.0537Z" fill="white"/>
</svg>
